<svg aria-hidden="true" style="position: absolute; width: 0; height: 0; overflow: hidden;" version="1.1" xmlns="http://www.w3.org/2000/svg" xmlns:xlink="http://www.w3.org/1999/xlink">
<defs>
<symbol id="icon-air-canada-2" viewBox="0 0 32 32">
<title>air-canada-2</title>
<path fill="#b01842" style="fill: var(--color1, #b01842)" d="M15.989 10.632c-1.786 0-3.234 1.353-3.234 3.021 0 1.464 1.115 2.684 2.594 2.962 0.29 0.060 0.464 0.129 0.552 0.255 0.214-0.352 0.188-1.458 0.188-1.81 0-0.301 0.188-0.201 0.352-0.113l0.691 0.364c0.038-0.189 0.276-0.201 0.427-0.138l0.289 0.075-0.138-0.289c-0.101-0.188-0.050-0.339 0.063-0.402l-0.239-0.189c-0.189-0.126-0.076-0.251 0.189-0.352l0.427-0.201c-0.251-0.176-0.076-0.377 0.038-0.528l0.239-0.314-0.54-0.013c-0.264-0.025-0.327-0.113-0.327-0.276l-0.541 0.364c-0.251 0.163-0.415 0-0.389-0.289l0.088-0.679c-0.251 0.138-0.415-0.037-0.477-0.214 0 0-0.189-0.364-0.251-0.553-0.063 0.188-0.251 0.553-0.251 0.553-0.063 0.176-0.226 0.352-0.478 0.214l0.088 0.679c0.025 0.289-0.138 0.452-0.39 0.289l-0.54-0.364c0 0.163-0.063 0.251-0.327 0.276l-0.54 0.013 0.239 0.314c0.113 0.151 0.289 0.352 0.038 0.528l0.427 0.201c0.264 0.101 0.377 0.226 0.189 0.352l-0.239 0.189c0.113 0.063 0.163 0.214 0.063 0.402l-0.138 0.289 0.289-0.075c0.151-0.063 0.389-0.050 0.427 0.138l0.691-0.364c0.163-0.088 0.352-0.188 0.352 0.113 0 0.314 0.052 1.034-0.175 1.246-1.441-0.13-2.568-1.268-2.568-2.653 0-1.472 1.273-2.666 2.844-2.666s2.843 1.193 2.843 2.666c0 1.373-1.094 2.503-2.517 2.65l0.004 0.356c1.631-0.155 2.904-1.442 2.904-3.006 0-1.669-1.448-3.021-3.234-3.021zM32 21.26c-0.064-0.089-0.146-0.216-0.191-0.331l-0.566-1.483c-0.032-0.089-0.038-0.229-0.038-0.286h-0.923c0 0.076 0.012 0.216-0.038 0.331l-0.63 1.515c-0.038 0.089-0.083 0.146-0.166 0.255h0.611l0.146-0.408h0.949l0-0.007 0.14 0.415h0.707zM30.332 20.508l0.369-1.006 0.339 1.006h-0.708zM23.852 19.445c-0.032-0.089-0.038-0.229-0.038-0.286h-0.923c0 0.076 0.013 0.216-0.038 0.331l-0.63 1.515c-0.038 0.089-0.083 0.146-0.166 0.255h0.611l0.146-0.408h0.948l0.001-0.006 0.14 0.413h0.706c-0.063-0.089-0.146-0.216-0.191-0.331l-0.567-1.483zM22.942 20.508l0.369-1.006 0.339 1.006h-0.708zM16.273 19.445c-0.032-0.089-0.038-0.229-0.038-0.286h-0.923c0 0.076 0.013 0.216-0.038 0.331l-0.63 1.515c-0.038 0.089-0.083 0.146-0.165 0.255h0.611l0.146-0.408h0.949l-0.115-0.344h-0.707l0.369-1.006 0.592 1.757h0.706c-0.064-0.089-0.146-0.216-0.191-0.331l-0.566-1.483zM1.795 19.445c-0.032-0.089-0.038-0.229-0.038-0.286h-0.923c0 0.076 0.013 0.216-0.038 0.331l-0.63 1.515c-0.038 0.089-0.083 0.146-0.166 0.255h0.611l0.146-0.408h0.949l-0.115-0.344h-0.707l0.369-1.006 0.592 1.757h0.707c-0.064-0.089-0.146-0.216-0.191-0.331l-0.567-1.483zM4.653 19.159h-0.751c0.019 0.057 0.057 0.146 0.057 0.28v1.534c0 0.134-0.038 0.223-0.057 0.286h0.751c-0.019-0.064-0.057-0.153-0.057-0.286v-1.534c0-0.134 0.038-0.223 0.057-0.28zM27.122 19.159h-1.12c0.019 0.057 0.057 0.146 0.057 0.28v1.534c0 0.134-0.038 0.223-0.057 0.286h1.12c0.93 0 1.102-0.643 1.102-1.057s-0.172-1.044-1.102-1.044zM26.937 20.922h-0.242v-1.426h0.242c0.267 0 0.63 0.102 0.63 0.713s-0.363 0.713-0.63 0.713zM20.707 19.159h-0.554v1.146l-0.974-1.146h-0.77c0.019 0.057 0.057 0.146 0.057 0.28v1.534c0 0.134-0.038 0.223-0.057 0.286h0.554v-1.4l1.19 1.4h0.554c-0.019-0.064-0.057-0.153-0.057-0.286v-1.534c-0-0.134 0.038-0.223 0.057-0.28zM13.037 19.063c-0.114-0.033-0.312-0.059-0.503-0.057-0.617 0.006-1.33 0.427-1.33 1.203s0.713 1.152 1.33 1.158c0.191 0.002 0.389-0.024 0.503-0.057 0.134-0.038 0.274-0.058 0.318-0.051v-0.522c-0.108 0.102-0.382 0.21-0.656 0.21s-0.808-0.204-0.802-0.739c0-0.655 0.528-0.783 0.802-0.783s0.528 0.083 0.656 0.184v-0.497c-0.064 0.007-0.185-0.012-0.318-0.051zM8.072 20.438c0.318-0.121 0.446-0.433 0.439-0.713s-0.267-0.567-0.624-0.567h-1.528c0.019 0.057 0.057 0.146 0.057 0.28v1.534c0 0.134-0.038 0.223-0.057 0.286h0.694v-0.751h0.407l0.401 0.751h0.757c-0.115-0.115-0.198-0.242-0.255-0.325l-0.293-0.497zM7.473 20.145h-0.42v-0.655h0.484c0.229 0 0.331 0.159 0.331 0.305s-0.108 0.35-0.395 0.35z"></path>
</symbol>
<symbol id="icon-europe-online-1" viewBox="0 0 32 32">
<title>europe-online-1</title>
<path fill="#fff" style="fill: var(--color2, #fff)" d="M0 0h32v32h-32v-32z"></path>
<path fill="#fff" style="fill: var(--color2, #fff)" d="M8.392 18.879c0.796-0.792 1.193-1.746 1.197-2.869-0.004-1.123-0.401-2.077-1.197-2.872-0.796-0.792-1.756-1.19-2.879-1.19-1.126 0-2.091 0.398-2.886 1.19-0.796 0.796-1.193 1.749-1.193 2.872s0.398 2.077 1.193 2.869c0.796 0.792 1.76 1.19 2.886 1.19 1.123 0 2.084-0.398 2.879-1.19z"></path>
<path fill="#464551" style="fill: var(--color3, #464551)" d="M8.589 13.286c-0.218-0.239-0.44-0.44-0.658-0.588-0.331-0.239-0.7-0.426-1.112-0.563-0.034-0.014-0.090-0.033-0.147-0.050l-0.022-0.006c-0.131-0.041-0.297-0.082-0.466-0.112l-0.026-0.004c-0.128-0.020-0.3-0.040-0.475-0.054l-0.028-0.002c0.007 0 0.010-0.004 0.018-0.007h-0.007c-0.31-0.007-0.623 0.025-0.943 0.092-0.158 0.028-0.306 0.067-0.45 0.113l-0.056 0.018c-0.137 0.049-0.324 0.127-0.56 0.239-0.084 0.039-0.166 0.081-0.246 0.127l-0.236 0.148c-0.095 0.070-0.19 0.141-0.282 0.222-0.102 0.077-0.19 0.162-0.26 0.243-0.192 0.193-0.365 0.406-0.515 0.636l-0.009 0.015c-0.010 0.007-0.017 0.016-0.021 0.028l-0 0c-0.222 0.32-0.38 0.637-0.479 0.947-0.099 0.313-0.158 0.602-0.176 0.873-0.039 0.401-0.014 0.813 0.070 1.243 0.014 0.056 0.025 0.12 0.042 0.176 0.039 0.166 0.088 0.327 0.144 0.482 0.046 0.109 0.091 0.215 0.141 0.32 0 0.003 0.004 0.007 0.004 0.010 0.004 0.003 0.007 0.007 0.007 0.011 0.028 0.063 0.060 0.127 0.095 0.186h0.007c0.12 0.204 0.26 0.398 0.422 0.591 0.102 0.12 0.204 0.232 0.313 0.338l0.042 0.039c0.109 0.099 0.267 0.222 0.479 0.38 0.074 0.053 0.148 0.106 0.225 0.155l0.246 0.137c0.106 0.053 0.215 0.099 0.327 0.144 0.12 0.049 0.232 0.084 0.338 0.113 0.264 0.074 0.535 0.123 0.82 0.148 0.014 0.003 0.025 0.003 0.039 0.007 0.387 0.039 0.739 0.028 1.063-0.035 0.32-0.060 0.602-0.148 0.848-0.26 0.37-0.158 0.721-0.377 1.056-0.655 0.049-0.042 0.091-0.081 0.137-0.12 0.127-0.113 0.243-0.23 0.351-0.354l0.004-0.005c0.097-0.12 0.206-0.262 0.311-0.407l0.020-0.029c-0.004 0.003-0.004 0.003-0.004 0.007l0.007-0.007c0.158-0.26 0.289-0.549 0.398-0.859 0.049-0.148 0.095-0.299 0.127-0.447l0.010-0.053c0.028-0.144 0.053-0.345 0.081-0.605 0.007-0.091 0.010-0.186 0.014-0.274l-0.011-0.282c-0.016-0.147-0.033-0.267-0.054-0.386l0.005 0.034c-0.017-0.132-0.044-0.251-0.081-0.366l0.004 0.014c-0.083-0.3-0.184-0.558-0.307-0.803l0.012 0.025c-0.004-0.014-0.014-0.021-0.018-0.032-0.166-0.352-0.356-0.651-0.577-0.894zM8.987 18.101c0 0.028 0 0.053-0.004 0.074l-1.362-0.039c-0.105 0.112-0.215 0.216-0.332 0.312l-0.006 0.005c-0.792 0.665-1.714 0.94-2.767 0.817-1.007-0.116-1.851-0.552-2.534-1.316l0.648-1.116c-0.049-0.144-0.088-0.292-0.12-0.447-0.204-1.014-0.003-1.953 0.609-2.823 0.595-0.852 1.408-1.39 2.446-1.612 0.007-0.007 0.018-0.010 0.025-0.014l0.662 1.165c0.148 0.032 0.296 0.074 0.447 0.123 0.975 0.334 1.686 0.982 2.129 1.947 0.433 0.943 0.486 1.918 0.159 2.925z"></path>
<path fill="#f2ca30" style="fill: var(--color4, #f2ca30)" d="M5.523 14.229l0.313 0.046-0.313-1.035-0.359 1.035 0.359-0.046zM7.065 15.099c0.056 0.098 0.113 0.197 0.155 0.303l0.715-0.813-1.074 0.225c0.074 0.092 0.144 0.187 0.204 0.285zM6.368 14.455l0.317 0.179 0.176-1.081-0.803 0.767 0.31 0.134zM7.311 15.672l0.042 0.359-0.042 0.313 1.028-0.356-1.028-0.317zM5.925 17.834l-0.359 0.046h-0.359l0.359 0.989 0.359-1.035zM6.731 17.429l-0.271 0.18-0.31 0.179 0.848 0.676-0.267-1.035zM7.111 16.922c-0.060 0.099-0.13 0.194-0.204 0.282l1.074 0.225-0.718-0.813c-0.048 0.119-0.098 0.22-0.157 0.316l0.005-0.009zM4.59 14.511c0.102-0.049 0.201-0.102 0.306-0.144l-0.806-0.722 0.225 1.035c0.088-0.060 0.179-0.113 0.274-0.169zM3.932 15.187c0.067-0.107 0.135-0.199 0.208-0.286l-0.003 0.004-1.074-0.225 0.715 0.813c0.046-0.105 0.099-0.208 0.155-0.306zM3.978 17.010c-0.053-0.085-0.105-0.185-0.149-0.288l-0.006-0.015-0.715 0.813 1.074-0.229c-0.078-0.088-0.144-0.183-0.204-0.282zM4.939 17.788c-0.126-0.053-0.226-0.103-0.324-0.157l0.018 0.009c-0.107-0.058-0.196-0.113-0.281-0.172l0.011 0.007-0.225 1.081 0.803-0.767zM3.735 16.44l-0.046-0.362 0.046-0.313-1.028 0.313 1.028 0.362z"></path>
<path fill="#c9c9c9" style="fill: var(--color5, #c9c9c9)" d="M12.502 17.003h-1.188v-1.866h1.135v0.277h-0.713v0.502h0.554v0.282h-0.554v0.528h0.766v0.277zM14.095 16.464c0 0.176-0.054 0.313-0.163 0.412s-0.276 0.149-0.503 0.149c-0.244 0-0.419-0.053-0.525-0.16s-0.16-0.264-0.16-0.473v-1.255h0.422v1.306c0 0.101 0.023 0.177 0.069 0.228s0.125 0.076 0.238 0.076c0.105 0 0.182-0.023 0.233-0.068s0.076-0.127 0.076-0.244v-1.299h0.312v1.327h0zM15.7 17.003h-0.418c-0.003-0.3-0.032-0.514-0.086-0.643s-0.139-0.193-0.256-0.193h-0.099v0.836h-0.422v-1.866h0.732c0.178 0 0.305 0.039 0.379 0.117s0.112 0.173 0.112 0.286v0.102c0 0.107-0.032 0.192-0.097 0.257s-0.161 0.102-0.289 0.114c0.147 0.044 0.258 0.141 0.332 0.291s0.111 0.384 0.111 0.7zM15.234 15.679v-0.051c0-0.082-0.021-0.139-0.064-0.174s-0.106-0.052-0.19-0.052h-0.137v0.497h0.114c0.1 0 0.171-0.018 0.214-0.055s0.064-0.091 0.064-0.165zM17.398 16.128c0 0.294-0.070 0.519-0.21 0.673s-0.325 0.232-0.554 0.232c-0.227 0-0.411-0.077-0.552-0.232s-0.211-0.377-0.211-0.667v-0.106c0-0.27 0.066-0.491 0.197-0.662s0.324-0.256 0.577-0.256c0.248 0 0.435 0.086 0.562 0.26s0.191 0.392 0.191 0.658v0.1zM16.976 16.104v-0.051c0-0.23-0.020-0.4-0.059-0.511s-0.134-0.167-0.282-0.167c-0.137 0-0.228 0.049-0.273 0.148s-0.067 0.276-0.067 0.53v0.046c0 0.256 0.020 0.432 0.061 0.528s0.134 0.143 0.28 0.143c0.12 0 0.207-0.051 0.261-0.154s0.081-0.273 0.081-0.512zM18.893 15.768c0 0.158-0.048 0.278-0.144 0.358s-0.235 0.121-0.417 0.121h-0.253v0.757h-0.422v-1.866h0.7c0.2 0 0.34 0.048 0.418 0.145s0.118 0.21 0.118 0.338v0.147h-0zM18.462 15.796v-0.179c0-0.071-0.020-0.123-0.059-0.157s-0.104-0.051-0.194-0.051h-0.13v0.581h0.152c0.065 0 0.12-0.017 0.164-0.051s0.066-0.082 0.066-0.144zM20.317 17.003h-1.188v-1.866h1.135v0.277h-0.713v0.502h0.554v0.282h-0.554v0.528h0.766v0.277zM22.635 16.128c0 0.294-0.070 0.519-0.21 0.673s-0.325 0.232-0.554 0.232c-0.227 0-0.411-0.077-0.552-0.232s-0.211-0.377-0.211-0.667v-0.106c0-0.27 0.066-0.491 0.197-0.662s0.324-0.256 0.577-0.256c0.247 0 0.435 0.086 0.562 0.26s0.191 0.392 0.191 0.658v0.1h-0zM22.212 16.104v-0.051c0-0.23-0.020-0.4-0.059-0.511s-0.134-0.167-0.282-0.167c-0.137 0-0.228 0.049-0.273 0.148s-0.067 0.276-0.067 0.53v0.046c0 0.256 0.020 0.432 0.061 0.528s0.134 0.143 0.28 0.143c0.12 0 0.207-0.051 0.261-0.154s0.081-0.273 0.081-0.512zM24.284 17.003h-0.181l-0.933-1.17v1.17h-0.299v-1.866h0.225l0.888 1.103v-1.103h0.299v1.866zM25.74 17.003h-1.118v-1.866h0.422v1.588h0.695v0.277zM26.513 17.003h-0.422v-1.866h0.422v1.866zM28.334 17.003h-0.181l-0.933-1.17v1.17h-0.299v-1.866h0.225l0.888 1.103v-1.103h0.299v1.866zM29.861 17.003h-1.188v-1.866h1.135v0.277h-0.713v0.502h0.554v0.282h-0.554v0.528h0.765v0.277zM30.588 15.381c0 0.076-0.027 0.14-0.080 0.194s-0.118 0.080-0.193 0.080c-0.076 0-0.14-0.027-0.194-0.080s-0.080-0.118-0.080-0.194c0-0.076 0.027-0.141 0.080-0.195s0.118-0.081 0.194-0.081c0.075 0 0.14 0.027 0.193 0.081s0.080 0.119 0.080 0.195zM30.523 15.381c0-0.057-0.020-0.108-0.062-0.151s-0.090-0.065-0.148-0.065-0.107 0.022-0.148 0.065c-0.038 0.039-0.061 0.091-0.061 0.15 0 0 0 0.001 0 0.001v-0c0 0.058 0.020 0.108 0.061 0.151s0.090 0.065 0.148 0.065 0.107-0.022 0.148-0.065c0.038-0.038 0.062-0.091 0.062-0.15 0-0.001 0-0.001 0-0.002v0zM30.348 15.525v-0.052c0-0.001 0-0.002 0-0.003 0-0.018-0.004-0.035-0.012-0.051l0 0.001c-0.008-0.015-0.018-0.022-0.032-0.022h-0.020v0.127h-0.070v-0.294h0.114c0.031 0 0.054 0.006 0.069 0.018 0.014 0.010 0.023 0.026 0.023 0.045 0 0 0 0.001 0 0.001v-0 0.025c0 0.016-0.004 0.029-0.013 0.040s-0.020 0.017-0.033 0.020c0.019 0.009 0.034 0.024 0.042 0.043l0 0.001c0.008 0.019 0.012 0.036 0.012 0.053v0.048h-0.080v-0zM30.355 15.323v-0.011c0-0 0-0.001 0-0.001 0-0.009-0.003-0.017-0.008-0.023l0 0c-0.004-0.006-0.012-0.010-0.019-0.010-0 0-0 0-0.001 0h-0.042v0.079h0.042c0.010 0 0.017-0.003 0.021-0.008s0.007-0.014 0.007-0.026z"></path>
</symbol>
<symbol id="icon-mercedes-benz-2" viewBox="0 0 32 32">
<title>mercedes-benz-2</title>
<path fill="#fff" style="fill: var(--color2, #fff)" d="M0 0h32v32h-32v-32z"></path>
<path fill="#808183" style="fill: var(--color6, #808183)" d="M7.776 21.23c0.042-0.015-0.015 0.009 0.037-0.011l8.012-3.054v-1.891l-8.025 4.558c-0.226 0.113-0.275 0.048-0.081-0.081l7.072-5.155-0.695-0.404-6.639 5.521 0.025 0.048c-0.791-1.404-1.243-3.025-1.243-4.751 0-0.003 0-0.006 0-0.009 0-5.266 4.208-9.581 9.433-9.754l-1.383 8.671 0.679 0.404 0.91-8.958c0.016-0.113 0.097-0.113 0.097 0l0.092 9.475 1.648-0.97-1.489-8.625c5.272 0.122 9.533 4.458 9.533 9.758v-0c0 0.003 0 0.006 0 0.009 0 1.745-0.462 3.383-1.244 4.75l-6.671-5.551-0.695 0.388 7.076 5.162c0.178 0.146 0.113 0.194-0.081 0.097l-8.013-4.564v1.891l8.076 3.091c-1.74 2.697-4.771 4.489-8.208 4.489-4.727 0-7.902-4.129-8.224-4.531zM16 5.75c5.646 0 10.25 4.605 10.25 10.25s-4.605 10.25-10.25 10.25-10.25-4.605-10.25-10.25 4.605-10.25 10.25-10.25zM16 30.064c7.746 0 14.064-6.318 14.064-14.064s-6.318-14.063-14.064-14.063c-7.746 0-14.063 6.318-14.063 14.063s6.318 14.064 14.063 14.064zM16 30.588c8.035 0 14.588-6.553 14.588-14.588s-6.553-14.588-14.588-14.588c-8.035 0-14.588 6.553-14.588 14.588s6.553 14.588 14.588 14.588zM28.040 10.393c0.209 0.396 0.39 0.803 0.559 1.216 0.183 0.472 0.232 0.818 0.093 1.075-0.037 0.037-0.083 0.026-0.104-0.036-0.142-0.56-0.343-1.096-0.58-1.615-0.122-0.263-0.15-0.433-0.084-0.655 0.018-0.046 0.087-0.044 0.115 0.014zM26.877 13.23c-0.211-0.098-0.392-0.397-0.519-0.725-0.134-0.369-0.284-0.732-0.442-1.090-0.026-0.042 0.016-0.085 0.068-0.070 0.181 0.042 0.353 0.19 0.437 0.412l0.522 1.399c0.014 0.054-0.028 0.088-0.067 0.073zM29.305 15.376c0.036 0.446 0.043 0.892 0.037 1.338-0.017 0.506-0.108 0.844-0.337 1.026-0.048 0.019-0.087-0.008-0.081-0.074 0.090-0.571 0.115-1.142 0.1-1.713-0.009-0.29 0.032-0.457 0.18-0.635 0.035-0.035 0.097-0.007 0.1 0.059zM27.121 17.528c-0.156-0.173-0.205-0.519-0.193-0.87 0.022-0.392 0.027-0.784 0.021-1.177-0.007-0.049 0.048-0.072 0.091-0.038 0.15 0.11 0.25 0.314 0.24 0.551l-0.069 1.492c-0.008 0.055-0.060 0.070-0.090 0.041zM28.53 20.549c-0.153 0.421-0.332 0.829-0.523 1.232-0.226 0.454-0.449 0.722-0.732 0.793-0.052-0.003-0.075-0.044-0.043-0.101 0.319-0.483 0.579-0.991 0.804-1.517 0.113-0.267 0.219-0.403 0.428-0.503 0.046-0.017 0.091 0.034 0.067 0.095zM25.649 21.6c-0.070-0.222 0.030-0.557 0.186-0.871l-0.046 0.095c0.181-0.342 0.351-0.69 0.554-1.157 0.014-0.048 0.073-0.046 0.098 0.003 0.091 0.162 0.097 0.389-0.010 0.601-0.228 0.443-0.456 0.886-0.683 1.328-0.031 0.047-0.084 0.038-0.099 0zM26.889 10.335c0.009 0.058-0.040 0.099-0.082 0.071-0.378-0.269-0.582-0.602-0.634-1.075-0-0.060 0.053-0.081 0.103-0.054 0.375 0.297 0.566 0.625 0.614 1.058zM25.738 25.031c-0.297 0.335-0.614 0.648-0.941 0.952-0.378 0.338-0.684 0.506-0.974 0.466-0.047-0.021-0.054-0.068-0.003-0.11 0.474-0.33 0.904-0.707 1.307-1.112 0.204-0.207 0.352-0.293 0.583-0.309 0.049 0.001 0.072 0.065 0.027 0.113zM22.673 24.942c0.017-0.233 0.233-0.507 0.495-0.741l0.022-0.018c0.29-0.251 0.572-0.512 0.843-0.78 0.031-0.039 0.085-0.015 0.090 0.040 0.024 0.184-0.054 0.398-0.232 0.554l-1.126 0.981c-0.046 0.032-0.092 0.005-0.092-0.036zM28.124 13.506c0.048-0.030 0.092-0.057 0.131-0.108 0.115-0.166 0.104-0.411 0.029-0.673-0.178-0.531-0.341-1.039-0.564-1.551-0.119-0.259-0.183-0.644-0.128-0.833 0.085-0.296 0.216-0.576 0.281-0.863 0.024-0.074 0.128-0.059 0.184 0.030 0.333 0.561 0.61 1.146 0.861 1.742 0.297 0.661 0.308 1.371 0.014 1.895-0.186 0.307-0.484 0.589-0.739 0.762-0.019 0.013-0.032 0.034-0.032 0.059 0 0.004 0 0.008 0.001 0.011l-0-0c0.027 0.198 0.061 0.397 0.085 0.598 0.004 0.050 0.042 0.056 0.064 0.039 0.175-0.135 0.333-0.299 0.489-0.472 0.023-0.022 0.037-0.053 0.037-0.088 0-0.013-0.002-0.026-0.006-0.038l0 0.001c-0.007-0.026-0.012-0.057-0.012-0.088 0-0.185 0.15-0.336 0.335-0.337h0c0.185 0 0.335 0.151 0.335 0.336s-0.151 0.336-0.336 0.336c-0.038 0-0.074-0.006-0.107-0.017l0.002 0.001c-0.036-0.013-0.095 0-0.125 0.035-0.136 0.127-0.267 0.275-0.386 0.414-0.11 0.132-0.169 0.292-0.203 0.454-0.022 0.106-0.024 0.182-0.020 0.288 0.007 0.158 0.012 0.344 0.012 0.53 0 0.797-0.076 1.576-0.222 2.33l0.012-0.077c-0.007 0.031 0.009 0.055 0.031 0.052 0.065-0.009 0.123-0.027 0.178-0.051l-0.004 0.002c0.171-0.108 0.258-0.337 0.291-0.608 0.044-0.558 0.094-1.089 0.091-1.647-0.008-0.285 0.085-0.664 0.209-0.817 0.194-0.239 0.425-0.445 0.598-0.684 0.051-0.058 0.141-0.004 0.158 0.1 0.086 0.647 0.111 1.293 0.108 1.94 0.014 0.725-0.255 1.383-0.731 1.749-0.292 0.209-0.676 0.351-0.979 0.411-0.022 0.003-0.049 0.026-0.053 0.050-0.060 0.265-0.108 0.448-0.161 0.629l0.021-0.083c-0.020 0.059-0.002 0.097 0.064 0.075 0.22-0.065 0.461-0.152 0.661-0.262 0.043-0.021 0.067-0.057 0.070-0.108 0.002-0.032 0.009-0.062 0.018-0.090l-0.001 0.002c0.047-0.132 0.172-0.225 0.317-0.225 0.040 0 0.077 0.007 0.113 0.019l-0.002-0.001c0.132 0.047 0.225 0.171 0.225 0.317 0 0.040-0.007 0.078-0.020 0.113l0.001-0.002c-0.048 0.132-0.172 0.224-0.317 0.224-0.077 0-0.148-0.026-0.205-0.070l0.001 0.001c-0.030-0.024-0.090-0.031-0.129-0.008-0.171 0.075-0.343 0.171-0.502 0.263-0.158 0.094-0.338 0.265-0.471 0.435-0.059 0.076-0.083 0.126-0.115 0.214-0.358 0.961-0.785 1.789-1.297 2.556l0.028-0.045c-0.012 0.017-0.009 0.038 0.012 0.044 0.041 0.009 0.083 0.013 0.128 0.013 0.2-0.027 0.374-0.199 0.517-0.432 0.272-0.489 0.538-0.952 0.767-1.461 0.111-0.262 0.353-0.569 0.53-0.656 0.275-0.136 0.571-0.228 0.827-0.373 0.071-0.032 0.129 0.055 0.102 0.157-0.191 0.624-0.437 1.222-0.708 1.809-0.289 0.665-0.806 1.151-1.392 1.287-0.328 0.064-0.704 0.043-0.996-0.019-0.021-0.004-0.045 0.005-0.054 0.019-0.154 0.214-0.287 0.389-0.424 0.559l0.018-0.024c-0.015 0.019-0.018 0.037 0.012 0.042 0.237 0.031 0.509 0.050 0.748 0.028 0.048-0.001 0.088-0.030 0.107-0.071l0-0.001c0.057-0.108 0.169-0.181 0.298-0.181 0.088 0 0.168 0.034 0.228 0.089l-0-0c0.135 0.125 0.144 0.339 0.018 0.475-0.062 0.066-0.149 0.108-0.247 0.108-0.126 0-0.235-0.069-0.293-0.171l-0.001-0.002c-0.017-0.034-0.070-0.065-0.115-0.058-0.186 0-0.383 0.020-0.565 0.041-0.15 0.020-0.337 0.081-0.503 0.16-0.119 0.056-0.159 0.095-0.246 0.19-0.657 0.711-1.387 1.338-2.183 1.875l-0.044 0.028c-0.018 0.015-0.022 0.039-0.005 0.052 0.048 0.038 0.092 0.064 0.151 0.088 0.196 0.049 0.421-0.047 0.64-0.21 0.433-0.354 0.852-0.685 1.252-1.074 0.2-0.202 0.539-0.398 0.735-0.413 0.306-0.025 0.615-0.001 0.907-0.041 0.077-0.003 0.1 0.099 0.037 0.183-0.408 0.509-0.858 0.974-1.327 1.42-0.514 0.511-1.175 0.772-1.769 0.681-0.354-0.066-0.722-0.246-0.974-0.424-0.008-0.006-0.018-0.009-0.029-0.009s-0.021 0.003-0.029 0.009l0-0c-0.143 0.091-0.341 0.206-0.543 0.316l-0.064 0.032c-0.029 0.018-0.050 0.008-0.063-0.022l-0.057-0.114c-0.014-0.031-0.001-0.057 0.029-0.073 0.257-0.137 0.447-0.249 0.634-0.365l-0.051 0.030c0.022-0.015 0.028-0.034 0.024-0.052-0.054-0.276-0.055-0.504-0.041-0.81 0.010-0.447 0.122-0.902 0.402-1.176 0.407-0.375 0.729-0.584 0.952-0.816 0.191-0.194 0.338-0.386 0.506-0.593 0.046-0.050 0.132-0.050 0.161 0.027 0.335 0.816 0.104 1.338-0.39 1.756-0.348 0.287-0.703 0.566-1.051 0.853-0.156 0.147-0.231 0.331-0.204 0.528 0.002 0.028 0.023 0.042 0.041 0.029 0.824-0.554 1.541-1.17 2.179-1.859l0.007-0.008c0.082-0.088 0.1-0.151 0.127-0.243 0.074-0.284 0.083-0.576-0.009-0.88-0.011-0.044-0.059-0.081-0.097-0.085-0.166-0.022-0.293-0.163-0.293-0.334 0-0.053 0.012-0.102 0.034-0.147l-0.001 0.002c0.080-0.167 0.281-0.238 0.448-0.158s0.238 0.281 0.158 0.448c-0.013 0.028-0.030 0.052-0.049 0.075-0.021 0.022-0.034 0.052-0.034 0.084 0 0.015 0.003 0.030 0.008 0.043l-0-0.001c0.060 0.201 0.123 0.397 0.208 0.578 0.005 0.016 0.023 0.015 0.032 0.002 0.135-0.168 0.258-0.341 0.393-0.517 0.011-0.012 0.008-0.039-0-0.055-0.175-0.258-0.265-0.479-0.373-0.79-0.156-0.419-0.22-0.884-0.061-1.242 0.24-0.498 0.462-0.812 0.583-1.11 0.105-0.251 0.171-0.484 0.251-0.738 0.025-0.063 0.104-0.095 0.16-0.034 0.612 0.634 0.591 1.205 0.286 1.776-0.217 0.395-0.444 0.786-0.661 1.181-0.1 0.215-0.091 0.436 0.041 0.622 0.014 0.020 0.034 0.019 0.047 0.002 0.591-0.776 0.971-1.678 1.298-2.601 0.020-0.059 0.024-0.12 0.014-0.187-0.045-0.289-0.153-0.559-0.358-0.802-0.028-0.036-0.087-0.052-0.123-0.040-0.028 0.008-0.060 0.013-0.093 0.013-0.186 0-0.336-0.151-0.336-0.336 0-0.004 0-0.008 0-0.013l-0 0.001c0.007-0.185 0.163-0.33 0.348-0.323 0.18 0.007 0.323 0.155 0.323 0.336 0 0.036-0.006 0.070-0.016 0.103l0.001-0.002c-0.015 0.049-0.006 0.091 0.026 0.127 0.123 0.147 0.247 0.287 0.381 0.411 0.035 0.031 0.060 0.020 0.071-0.030 0.053-0.187 0.102-0.376 0.146-0.566 0.007-0.023-0.007-0.051-0.024-0.066-0.23-0.149-0.392-0.304-0.6-0.521-0.316-0.316-0.567-0.712-0.572-1.104 0.011-0.552 0.082-0.93 0.069-1.252-0.008-0.272-0.045-0.512-0.079-0.775-0.004-0.068 0.055-0.13 0.131-0.098 0.821 0.322 1.039 0.85 0.999 1.497-0.033 0.449-0.077 0.899-0.11 1.349-0.002 0.216 0.081 0.398 0.245 0.515 0.024 0.019 0.039-0.002 0.042-0.022 0.131-0.666 0.206-1.432 0.206-2.215 0-0.077-0.001-0.153-0.002-0.23l0 0.011c-0.009-0.46-0.389-0.964-0.775-1.192-0.038-0.025-0.099-0.020-0.129 0.003-0.054 0.039-0.121 0.062-0.194 0.062-0.15 0-0.277-0.098-0.32-0.234l-0.001-0.002c-0.009-0.030-0.015-0.063-0.015-0.099 0-0.15 0.098-0.277 0.234-0.321l0.002-0.001c0.029-0.009 0.063-0.015 0.099-0.015 0.182 0 0.33 0.144 0.336 0.324l0 0.001c0.001 0.051 0.025 0.088 0.066 0.111 0.194 0.116 0.388 0.223 0.588 0.3 0.032 0.011 0.044-0.013 0.038-0.050-0.030-0.274-0.061-0.491-0.098-0.707l0.010 0.070c-0.006-0.022-0.024-0.039-0.046-0.043l-0-0c-0.269-0.047-0.48-0.126-0.757-0.244-0.415-0.167-0.802-0.432-0.959-0.791-0.207-0.512-0.29-0.888-0.428-1.178-0.114-0.247-0.243-0.453-0.377-0.682-0.031-0.061-0-0.142 0.082-0.141 0.882-0.026 1.289 0.374 1.506 0.984 0.146 0.427 0.282 0.857 0.428 1.284 0.084 0.201 0.233 0.337 0.432 0.379 0.023 0.006 0.033-0.021 0.030-0.047-0.183-0.866-0.429-1.625-0.746-2.347l0.030 0.076c-0.061-0.15-0.145-0.244-0.275-0.346-0.685-0.556-1.050-1.048-1.122-2.177-0.002-0.072 0.037-0.085 0.099-0.051 0.779 0.379 1.549 0.767 1.443 2.075-0.013 0.163-0.002 0.262 0.066 0.412 0.292 0.658 0.543 1.432 0.715 2.235l0.014 0.079c0.004 0.031 0.030 0.043 0.052 0.027zM23.578 7.228c-0.211 0.249-0.312 0.503-0.302 0.763s0.14 0.523 0.39 0.791c0.172 0.184 0.341 0.314 0.508 0.389s0.334 0.097 0.504 0.066l0.005-0.001c0.165-0.029 0.314-0.107 0.431-0.216 0.134-0.125 0.22-0.258 0.259-0.399s0.037-0.287-0.003-0.436c-0.041-0.149-0.134-0.35-0.279-0.605s-0.22-0.429-0.225-0.526c-0.004-0.076 0.019-0.137 0.069-0.184l-0 0c0.038-0.037 0.090-0.060 0.147-0.060 0.017 0 0.034 0.002 0.048 0.006 0.117 0.022 0.233 0.096 0.349 0.221 0.113 0.121 0.173 0.233 0.181 0.338s-0.033 0.217-0.125 0.337l0.418 0.411c0.189-0.189 0.279-0.405 0.27-0.648s-0.137-0.498-0.386-0.764c-0.152-0.163-0.306-0.279-0.463-0.349s-0.311-0.091-0.462-0.064c-0.151 0.027-0.281 0.090-0.389 0.191-0.168 0.157-0.249 0.355-0.245 0.594 0.003 0.17 0.083 0.396 0.241 0.679 0.122 0.22 0.198 0.363 0.227 0.429 0.043 0.097 0.060 0.177 0.052 0.24s-0.036 0.117-0.086 0.164c-0.078 0.073-0.179 0.101-0.303 0.085s-0.25-0.092-0.378-0.23c-0.122-0.13-0.185-0.264-0.191-0.402s0.049-0.285 0.166-0.44l-0.43-0.379zM21.167 6.681l1.785 1.296 0.287-0.396-1.311-0.952 0.464-0.639 1.178 0.856 0.287-0.395-1.178-0.856 0.378-0.52 1.266 0.92 0.289-0.397-1.74-1.264-1.705 2.347zM20.319 3.711l0.243 0.099c0.221 0.090 0.367 0.158 0.435 0.206 0.092 0.063 0.16 0.139 0.2 0.228s0.057 0.196 0.049 0.323c-0.009 0.126-0.054 0.293-0.138 0.501s-0.169 0.365-0.254 0.47c-0.085 0.105-0.168 0.173-0.247 0.202s-0.168 0.036-0.264 0.023c-0.075-0.010-0.188-0.046-0.339-0.107l-0.405-0.164 0.72-1.781zM19.959 3.037l0.993 0.401c0.224 0.090 0.387 0.176 0.491 0.258 0.135 0.106 0.24 0.245 0.303 0.405l0.002 0.007c0.065 0.164 0.092 0.344 0.082 0.539s-0.067 0.419-0.169 0.672c-0.089 0.221-0.194 0.401-0.314 0.539-0.146 0.168-0.305 0.288-0.48 0.358-0.131 0.054-0.287 0.074-0.468 0.061-0.135-0.010-0.303-0.056-0.504-0.137l-1.021-0.413 1.087-2.689zM16.584 5.354l2.176 0.363 0.080-0.482-1.598-0.267 0.13-0.779 1.436 0.24 0.080-0.482-1.436-0.24 0.106-0.634 1.543 0.258 0.081-0.484-2.121-0.354-0.478 2.861zM15.978 4.285c-0.031 0.215-0.097 0.378-0.2 0.486s-0.232 0.169-0.387 0.183c-0.21 0.018-0.388-0.044-0.532-0.188s-0.233-0.398-0.265-0.763c-0.030-0.345 0.015-0.599 0.135-0.764s0.287-0.258 0.501-0.276c0.155-0.013 0.29 0.018 0.406 0.095s0.198 0.189 0.245 0.337l0.566-0.188c-0.086-0.226-0.2-0.395-0.343-0.506-0.239-0.19-0.536-0.269-0.889-0.238-0.405 0.036-0.72 0.197-0.945 0.485s-0.317 0.672-0.275 1.153c0.040 0.454 0.195 0.802 0.465 1.043s0.597 0.344 0.98 0.31c0.31-0.027 0.56-0.126 0.748-0.296s0.312-0.418 0.371-0.741l-0.581-0.13zM11.988 4.372l-0.203-0.707 0.439-0.126c0.229-0.065 0.366-0.102 0.414-0.109 0.096-0.011 0.177 0.005 0.244 0.049s0.113 0.112 0.14 0.206c0.024 0.083 0.024 0.159 0.003 0.225s-0.064 0.122-0.124 0.163c-0.061 0.042-0.227 0.101-0.497 0.179l-0.416 0.119zM11.886 6.142l0.563-0.161-0.334-1.164 0.114-0.033c0.13-0.037 0.227-0.054 0.293-0.050s0.133 0.026 0.203 0.068 0.207 0.149 0.414 0.325l0.581 0.49 0.673-0.193-0.497-0.446c-0.196-0.178-0.346-0.298-0.45-0.361s-0.227-0.111-0.369-0.148c0.235-0.105 0.394-0.244 0.478-0.415s0.096-0.363 0.036-0.572c-0.047-0.165-0.13-0.3-0.247-0.405s-0.252-0.162-0.401-0.174-0.373 0.025-0.671 0.111l-1.185 0.34 0.8 2.788zM9.915 7.292l1.91-1.103-0.245-0.423-1.403 0.81-0.395-0.684 1.261-0.728-0.244-0.423-1.261 0.728-0.322-0.557 1.355-0.782-0.246-0.425-1.862 1.075 1.45 2.512zM7.779 9.226l0.391-0.377-1.586-1.643 1.999 1.244 0.406-0.392-1.172-2.043 1.586 1.643 0.391-0.378-2.015-2.086-0.632 0.61 1.001 1.785-1.753-1.058-0.631 0.609 2.015 2.086zM4 10.393c-0.208 0.396-0.39 0.803-0.56 1.216-0.183 0.472-0.232 0.818-0.093 1.075 0.037 0.037 0.083 0.026 0.104-0.036 0.142-0.56 0.343-1.096 0.581-1.615 0.122-0.263 0.15-0.433 0.083-0.655-0.018-0.046-0.087-0.044-0.115 0.014zM5.163 13.23c0.212-0.098 0.392-0.397 0.519-0.725l0.039-0.12c0.137-0.366 0.287-0.726 0.403-0.97 0.026-0.042-0.016-0.085-0.069-0.070-0.181 0.042-0.353 0.19-0.437 0.412l-0.522 1.399c-0.014 0.054 0.028 0.088 0.067 0.073zM2.735 15.376c-0.036 0.446-0.043 0.892-0.037 1.338 0.017 0.506 0.108 0.844 0.337 1.026 0.048 0.019 0.087-0.008 0.081-0.074-0.090-0.571-0.115-1.142-0.1-1.713 0.009-0.29-0.032-0.457-0.18-0.635-0.035-0.035-0.097-0.007-0.1 0.059zM4.919 17.528c0.156-0.173 0.205-0.519 0.193-0.87-0.021-0.392-0.026-0.784-0.021-1.177 0.007-0.049-0.048-0.072-0.091-0.038-0.15 0.11-0.25 0.314-0.24 0.551l0.069 1.492c0.008 0.055 0.060 0.070 0.090 0.041zM3.51 20.549c0.153 0.421 0.332 0.829 0.522 1.232 0.226 0.454 0.449 0.722 0.732 0.793 0.052-0.003 0.075-0.044 0.043-0.101-0.319-0.483-0.579-0.991-0.803-1.517-0.113-0.267-0.219-0.403-0.428-0.503-0.046-0.017-0.091 0.034-0.067 0.095zM6.391 21.6c0.070-0.222-0.030-0.557-0.186-0.871l0.046 0.094c-0.181-0.342-0.351-0.69-0.554-1.155-0.014-0.048-0.074-0.046-0.098 0.003-0.091 0.162-0.097 0.389 0.010 0.601l0.683 1.328c0.031 0.047 0.084 0.038 0.099 0zM5.152 10.335c0.048-0.433 0.238-0.761 0.614-1.058 0.050-0.027 0.103-0.006 0.103 0.054-0.053 0.473-0.256 0.806-0.635 1.075-0.042 0.028-0.091-0.013-0.082-0.071zM6.302 25.031c0.298 0.335 0.615 0.648 0.941 0.952 0.378 0.338 0.684 0.506 0.974 0.466 0.047-0.021 0.054-0.068 0.003-0.11-0.474-0.33-0.905-0.707-1.307-1.112-0.204-0.207-0.352-0.293-0.583-0.309-0.049 0.001-0.072 0.065-0.027 0.113zM9.367 24.942c-0.017-0.233-0.233-0.507-0.496-0.741l-0.022-0.018c-0.29-0.251-0.572-0.512-0.843-0.78-0.031-0.039-0.085-0.015-0.090 0.040-0.024 0.184 0.054 0.398 0.232 0.554l1.126 0.981c0.046 0.032 0.092 0.005 0.092-0.036zM3.916 13.506c0.022 0.016 0.048 0.004 0.052-0.027l0.014-0.080c0.172-0.803 0.423-1.577 0.715-2.235 0.068-0.149 0.079-0.249 0.066-0.412-0.106-1.308 0.664-1.696 1.443-2.075 0.062-0.034 0.101-0.021 0.099 0.051-0.072 1.128-0.436 1.621-1.122 2.177-0.129 0.102-0.214 0.196-0.274 0.346l0.030-0.076c-0.316 0.722-0.563 1.481-0.746 2.347-0.004 0.026 0.006 0.052 0.029 0.047 0.199-0.042 0.348-0.178 0.432-0.379 0.146-0.427 0.282-0.857 0.428-1.284 0.218-0.61 0.625-1.010 1.506-0.984 0.082-0.001 0.112 0.080 0.082 0.141-0.134 0.229-0.262 0.435-0.377 0.682-0.138 0.29-0.221 0.666-0.428 1.178-0.158 0.359-0.545 0.624-0.959 0.791-0.277 0.118-0.487 0.197-0.757 0.244l-0 0c-0.022 0.004-0.040 0.021-0.046 0.043-0.035 0.21-0.064 0.423-0.088 0.637-0.006 0.037 0.006 0.061 0.038 0.050 0.2-0.077 0.393-0.184 0.588-0.3 0.042-0.023 0.065-0.060 0.066-0.111l0-0.001c0.007-0.18 0.155-0.324 0.336-0.324 0.035 0 0.069 0.005 0.098 0.015 0.177 0.054 0.276 0.243 0.222 0.42l-0.001 0.002c-0.043 0.136-0.17 0.234-0.321 0.234-0.073 0-0.14-0.023-0.194-0.062-0.030-0.023-0.091-0.028-0.129-0.003-0.386 0.228-0.766 0.732-0.775 1.192l0-0.011c-0.001 0.076-0.002 0.153-0.002 0.23 0 0.783 0.075 1.549 0.206 2.215 0.003 0.020 0.018 0.041 0.042 0.022 0.164-0.117 0.246-0.299 0.245-0.515-0.033-0.45-0.077-0.899-0.11-1.349-0.039-0.647 0.178-1.174 0.999-1.497 0.075-0.033 0.135 0.030 0.131 0.098-0.033 0.264-0.070 0.503-0.079 0.775-0.013 0.321 0.058 0.699 0.069 1.252-0.005 0.392-0.256 0.788-0.572 1.104-0.208 0.218-0.371 0.373-0.6 0.521-0.017 0.014-0.032 0.043-0.024 0.066l0.016 0.080c0.045 0.192 0.096 0.382 0.13 0.487 0.011 0.050 0.037 0.061 0.071 0.030 0.134-0.123 0.258-0.264 0.38-0.411 0.032-0.035 0.041-0.078 0.026-0.127l0.001 0.002c-0.010-0.032-0.016-0.067-0.016-0.102 0-0.181 0.143-0.329 0.323-0.336l-0.001 0c0.004-0 0.008-0 0.012-0 0.181 0 0.329 0.143 0.336 0.323l-0-0.001c0 0.004 0 0.008 0 0.013 0 0.186-0.151 0.336-0.336 0.336-0.033 0-0.065-0.005-0.093-0.013-0.036-0.012-0.095 0.003-0.123 0.040-0.205 0.242-0.313 0.512-0.358 0.802l0-0.002c-0.004 0.022-0.006 0.044-0.006 0.067 0 0.044 0.007 0.086 0.019 0.122 0.328 0.924 0.707 1.826 1.298 2.601 0.013 0.017 0.033 0.018 0.047-0.002 0.133-0.185 0.142-0.406 0.042-0.622-0.217-0.395-0.444-0.786-0.661-1.181-0.305-0.572-0.326-1.142 0.286-1.776 0.055-0.061 0.135-0.029 0.159 0.034 0.079 0.253 0.145 0.487 0.251 0.738 0.121 0.298 0.343 0.612 0.583 1.11 0.159 0.358 0.094 0.823-0.061 1.242-0.108 0.311-0.198 0.532-0.373 0.79-0.009 0.016-0.012 0.043-0 0.055 0.134 0.176 0.258 0.348 0.392 0.517 0.009 0.013 0.027 0.014 0.033-0.002 0.085-0.181 0.148-0.376 0.208-0.578 0.015-0.045 0.007-0.088-0.026-0.127-0.019-0.022-0.036-0.047-0.049-0.075l0.001 0.002c-0.022-0.044-0.034-0.094-0.034-0.147 0-0.133 0.077-0.248 0.191-0.303l-0.002 0.001c0.044-0.021 0.094-0.034 0.147-0.034 0.133 0 0.248 0.077 0.303 0.191l-0.001-0.002c0.022 0.044 0.034 0.094 0.034 0.147 0 0.171-0.127 0.311-0.293 0.333-0.038 0.004-0.086 0.041-0.097 0.085-0.092 0.304-0.083 0.596-0.009 0.88 0.027 0.092 0.045 0.155 0.127 0.243l0.007 0.008c0.638 0.69 1.354 1.305 2.179 1.859 0.017 0.013 0.039-0.002 0.041-0.029 0.027-0.197-0.048-0.381-0.204-0.528-0.348-0.287-0.703-0.566-1.051-0.853-0.495-0.419-0.725-0.94-0.39-1.756 0.029-0.077 0.115-0.077 0.161-0.027 0.167 0.207 0.315 0.399 0.506 0.593 0.223 0.232 0.545 0.442 0.952 0.816 0.28 0.274 0.392 0.73 0.402 1.176 0.013 0.307 0.013 0.534-0.041 0.81-0.004 0.019 0.002 0.038 0.024 0.052l-0.051-0.029c0.187 0.116 0.378 0.227 0.634 0.364 0.030 0.016 0.042 0.042 0.028 0.073l-0.057 0.114c-0.013 0.030-0.034 0.041-0.063 0.022l-0.064-0.032c-0.202-0.11-0.401-0.225-0.543-0.316l0 0c-0.008-0.006-0.018-0.009-0.029-0.009s-0.021 0.004-0.029 0.009c-0.252 0.178-0.62 0.357-0.974 0.424-0.594 0.091-1.255-0.17-1.769-0.681-0.469-0.446-0.919-0.911-1.327-1.42-0.063-0.084-0.040-0.187 0.037-0.183 0.292 0.040 0.601 0.016 0.907 0.041 0.196 0.016 0.534 0.211 0.735 0.413 0.401 0.388 0.819 0.72 1.252 1.074 0.219 0.164 0.444 0.259 0.64 0.21l0.004-0.001c0.054-0.022 0.104-0.052 0.147-0.087 0.016-0.014 0.013-0.037-0.005-0.052l-0.044-0.028c-0.796-0.537-1.526-1.164-2.183-1.875-0.087-0.095-0.127-0.134-0.246-0.19-0.167-0.079-0.353-0.14-0.503-0.16-0.182-0.021-0.379-0.041-0.565-0.041-0.045-0.006-0.098 0.025-0.115 0.058l-0.001 0.002c-0.058 0.102-0.167 0.171-0.293 0.171-0.097 0-0.185-0.041-0.247-0.108-0.125-0.136-0.117-0.349 0.019-0.475l-0 0c0.060-0.055 0.14-0.089 0.228-0.089 0.129 0 0.241 0.073 0.298 0.181l0 0.001c0.019 0.041 0.059 0.069 0.107 0.071 0.24 0.022 0.512 0.003 0.749-0.028 0.030-0.005 0.026-0.023 0.011-0.042l0.019 0.024c-0.138-0.171-0.271-0.345-0.425-0.56-0.009-0.014-0.034-0.024-0.054-0.019-0.292 0.061-0.668 0.083-0.996 0.019-0.586-0.135-1.103-0.622-1.392-1.287-0.271-0.587-0.517-1.185-0.708-1.809-0.027-0.102 0.032-0.189 0.102-0.157 0.256 0.145 0.552 0.237 0.828 0.373 0.176 0.087 0.419 0.394 0.53 0.656 0.229 0.509 0.495 0.971 0.767 1.461 0.143 0.233 0.317 0.405 0.517 0.432h-0c0.001 0 0.003 0 0.004 0 0.044 0 0.087-0.005 0.124-0.013 0.021-0.006 0.024-0.027 0.012-0.044l0.028 0.044c-0.512-0.767-0.94-1.596-1.297-2.556-0.033-0.088-0.056-0.138-0.115-0.214-0.132-0.17-0.313-0.341-0.471-0.435-0.159-0.092-0.331-0.188-0.502-0.263-0.039-0.024-0.1-0.016-0.129 0.008l0.001-0.001c-0.057 0.044-0.128 0.071-0.206 0.071-0.146 0-0.27-0.093-0.317-0.225l0.001 0.002c-0.013-0.035-0.019-0.073-0.019-0.113 0-0.146 0.093-0.27 0.225-0.318l-0.002 0.001c0.035-0.012 0.073-0.019 0.112-0.019 0.177 0 0.323 0.137 0.336 0.312 0.003 0.051 0.028 0.087 0.070 0.108 0.2 0.109 0.441 0.197 0.661 0.262 0.065 0.021 0.084-0.016 0.064-0.075-0.051-0.18-0.097-0.363-0.14-0.546-0.005-0.024-0.032-0.046-0.054-0.050-0.303-0.059-0.686-0.201-0.979-0.411-0.476-0.366-0.745-1.024-0.731-1.749-0.003-0.647 0.022-1.293 0.108-1.94 0.017-0.104 0.107-0.158 0.158-0.1 0.173 0.238 0.404 0.445 0.598 0.684 0.124 0.152 0.217 0.532 0.209 0.817-0.003 0.558 0.046 1.089 0.091 1.647 0.034 0.271 0.12 0.5 0.291 0.608l-0.004-0.002c0.055 0.024 0.113 0.042 0.178 0.051 0.022 0.004 0.039-0.021 0.031-0.052l0.012 0.077c-0.146-0.754-0.222-1.534-0.222-2.331 0-0.186 0.004-0.372 0.012-0.53 0.005-0.106 0.003-0.183-0.020-0.288-0.034-0.162-0.093-0.322-0.203-0.454-0.12-0.139-0.25-0.287-0.387-0.414-0.029-0.035-0.089-0.048-0.124-0.035l0.002-0.001c-0.034 0.011-0.070 0.017-0.107 0.017-0.185 0-0.336-0.15-0.337-0.335v-0c0-0.185 0.151-0.335 0.336-0.336h0c0.185 0.001 0.336 0.151 0.336 0.337 0 0.031-0.004 0.062-0.012 0.088l0-0.001c-0.004 0.012-0.006 0.025-0.006 0.039 0 0.034 0.014 0.065 0.037 0.088 0.156 0.173 0.314 0.337 0.489 0.472 0.022 0.017 0.060 0.011 0.064-0.039 0.023-0.201 0.058-0.401 0.085-0.598l-0 0c0.001-0.004 0.001-0.007 0.001-0.011 0-0.025-0.013-0.046-0.032-0.059-0.255-0.173-0.552-0.454-0.739-0.762-0.295-0.524-0.283-1.235 0.014-1.895 0.251-0.596 0.528-1.181 0.861-1.742 0.057-0.089 0.16-0.103 0.184-0.030 0.065 0.287 0.196 0.568 0.281 0.863 0.055 0.189-0.009 0.575-0.128 0.833-0.222 0.512-0.385 1.020-0.564 1.551-0.076 0.263-0.086 0.507 0.029 0.673 0.039 0.051 0.083 0.078 0.131 0.108zM13.491 29.4l2.194 0.222 0.049-0.487-1.612-0.163 0.079-0.785 1.449 0.146 0.049-0.486-1.449-0.146 0.064-0.64 1.557 0.157 0.049-0.489-2.139-0.216-0.291 2.886zM19.21 29.238l2.242-0.728-0.151-0.465-1.57 0.51 0.907-2.352-0.14-0.433-2.019 0.656 0.152 0.467 1.285-0.418-0.868 2.26 0.163 0.502zM16.424 29.61l0.54-0.065-0.225-1.878 1.386 1.739 0.584-0.070-0.346-2.88-0.541 0.065 0.231 1.923-1.409-1.782-0.566 0.068 0.346 2.88zM11.663 25.803l-0.967 2.734 0.931 0.329c0.353 0.122 0.578 0.194 0.673 0.217 0.153 0.035 0.292 0.036 0.417 0.001s0.237-0.101 0.336-0.197l0-0c0.094-0.090 0.167-0.201 0.215-0.332 0.056-0.158 0.060-0.311 0.012-0.46s-0.147-0.276-0.296-0.383l0.002-0c0.137-0.011 0.263-0.063 0.363-0.141l0.002-0.001c0.102-0.079 0.181-0.186 0.226-0.315l-0.002 0.005c0.027-0.072 0.042-0.15 0.042-0.232 0-0.043-0.004-0.086-0.011-0.122-0.022-0.115-0.065-0.216-0.129-0.302l-0.001-0.002c-0.064-0.086-0.146-0.158-0.244-0.212-0.1-0.056-0.258-0.122-0.475-0.199l-1.093-0.386zM12.055 26.454l0.317 0.112c0.26 0.092 0.416 0.151 0.468 0.176 0.088 0.044 0.146 0.1 0.174 0.169s0.026 0.146-0.004 0.231c-0.031 0.088-0.083 0.15-0.157 0.185s-0.159 0.041-0.257 0.019c-0.055-0.012-0.189-0.056-0.405-0.133l-0.362-0.128 0.224-0.632zM11.67 27.541l0.446 0.158c0.251 0.089 0.41 0.159 0.476 0.212s0.108 0.115 0.128 0.186c0.019 0.071 0.015 0.148-0.014 0.23-0.034 0.097-0.088 0.165-0.16 0.205l0.002-0.001c-0.052 0.029-0.111 0.045-0.175 0.045-0.023 0-0.046-0.002-0.066-0.006-0.058-0.007-0.185-0.047-0.385-0.117l-0.511-0.181 0.258-0.731z"></path>
</symbol>
<symbol id="icon-phoenix-technologies" viewBox="0 0 32 32">
<title>phoenix-technologies</title>
<path fill="#fff" style="fill: var(--color2, #fff)" d="M0 0h32v32h-32v-32z"></path>
<path fill="#c9c9c9" style="fill: var(--color5, #c9c9c9)" d="M9.018 20.476v0.256c0 0.055 0.006 0.089 0.018 0.103 0.016 0.019 0.041 0.029 0.074 0.029h0.034v0.024h-0.376v-0.024h0.033c0.037 0 0.064-0.012 0.080-0.036 0.009-0.013 0.013-0.045 0.013-0.095v-0.567c0-0.055-0.006-0.089-0.017-0.103-0.017-0.019-0.042-0.029-0.075-0.029h-0.033v-0.024h0.322c0.078 0 0.14 0.008 0.186 0.024s0.084 0.044 0.115 0.082c0.031 0.038 0.047 0.084 0.047 0.137 0 0.072-0.024 0.13-0.071 0.175s-0.114 0.067-0.2 0.067c-0.021 0-0.044-0.002-0.069-0.005-0.032-0.004-0.059-0.008-0.085-0.014l0.006 0.001zM9.018 20.439c0.023 0.004 0.043 0.007 0.061 0.010s0.033 0.003 0.045 0.003c0 0 0.001 0 0.001 0 0.046 0 0.087-0.020 0.115-0.052l0-0c0.033-0.035 0.049-0.080 0.049-0.135 0-0.038-0.008-0.073-0.023-0.106-0.014-0.031-0.037-0.056-0.065-0.072l-0.001-0c-0.027-0.015-0.059-0.024-0.093-0.024-0.002 0-0.003 0-0.005 0h0c-0.022 0-0.050 0.004-0.085 0.012v0.365zM9.7 19.966v0.434c0.048-0.052 0.086-0.086 0.114-0.101s0.056-0.022 0.084-0.022c0.034 0 0.062 0.009 0.087 0.028s0.042 0.048 0.054 0.087c0.008 0.028 0.012 0.078 0.012 0.151v0.21c0 0.037 0.003 0.063 0.009 0.077 0.004 0.011 0.012 0.019 0.022 0.024l0 0c0.010 0.006 0.029 0.009 0.057 0.009v0.023h-0.291v-0.023h0.013c0.028 0 0.047-0.004 0.058-0.013 0.011-0.009 0.019-0.022 0.023-0.037l0-0c0.001-0.007 0.002-0.027 0.002-0.061v-0.21c0-0.065-0.003-0.107-0.010-0.128-0.006-0.019-0.017-0.034-0.032-0.046l-0-0c-0.014-0.010-0.032-0.015-0.051-0.015-0.001 0-0.002 0-0.003 0h0c-0.024 0-0.047 0.007-0.067 0.017l0.001-0c-0.023 0.011-0.050 0.034-0.082 0.068v0.314c0 0.040 0.002 0.066 0.007 0.076 0.006 0.011 0.014 0.019 0.025 0.025l0 0c0.012 0.006 0.033 0.010 0.064 0.010v0.023h-0.294v-0.023c0.002 0 0.004 0 0.006 0 0.020 0 0.040-0.005 0.057-0.013l-0.001 0c0.010-0.006 0.017-0.014 0.021-0.024l0-0c0.005-0.012 0.008-0.037 0.008-0.074v-0.537c0-0.068-0.002-0.11-0.005-0.125s-0.008-0.026-0.015-0.031c-0.007-0.005-0.015-0.009-0.024-0.009-0.001 0-0.002 0-0.003 0h0c-0.016 0.001-0.031 0.005-0.045 0.011l0.001-0-0.009-0.023 0.177-0.073h0.030zM10.48 20.276c0.090 0 0.162 0.034 0.216 0.102 0.046 0.058 0.069 0.125 0.069 0.201 0 0.053-0.013 0.107-0.038 0.161-0.023 0.051-0.059 0.093-0.104 0.123l-0.001 0.001c-0.041 0.026-0.092 0.041-0.146 0.041-0.001 0-0.002 0-0.004-0h0c-0.089 0-0.161-0.035-0.213-0.107-0.042-0.055-0.067-0.124-0.067-0.199 0-0.001 0-0.002 0-0.003v0c0-0.054 0.014-0.108 0.040-0.162s0.063-0.093 0.107-0.119c0.044-0.026 0.090-0.039 0.14-0.039zM10.46 20.319c-0.026 0-0.049 0.008-0.070 0.020l0.001-0c-0.023 0.014-0.042 0.037-0.056 0.072s-0.021 0.078-0.021 0.131c0 0.086 0.017 0.161 0.052 0.223s0.080 0.094 0.136 0.094c0 0 0.001 0 0.001 0 0.042 0 0.079-0.020 0.102-0.051l0-0c0.027-0.035 0.041-0.094 0.041-0.178 0-0.105-0.023-0.188-0.068-0.249-0.031-0.042-0.070-0.062-0.117-0.062zM10.954 20.517c-0.001 0.088 0.021 0.157 0.064 0.208s0.094 0.075 0.152 0.075c0.001 0 0.002 0 0.004 0 0.037 0 0.071-0.012 0.098-0.032l-0 0c0.029-0.021 0.052-0.058 0.072-0.11l0.020 0.013c-0.010 0.063-0.038 0.118-0.079 0.162l0-0c-0.039 0.045-0.096 0.073-0.16 0.073-0.001 0-0.003 0-0.004-0h0c-0.071 0-0.132-0.028-0.183-0.083s-0.076-0.13-0.076-0.224c0-0.101 0.026-0.181 0.078-0.237 0.047-0.052 0.115-0.085 0.19-0.085 0.002 0 0.004 0 0.006 0h-0c0.066 0 0.121 0.022 0.164 0.066s0.064 0.102 0.064 0.176h-0.41zM10.954 20.48h0.274c-0.002-0.038-0.007-0.065-0.014-0.080-0.010-0.024-0.027-0.043-0.048-0.057l-0.001-0c-0.019-0.013-0.042-0.020-0.067-0.021h-0c-0.038 0-0.072 0.016-0.096 0.042l-0 0c-0.028 0.028-0.045 0.067-0.049 0.116zM11.617 20.402c0.069-0.084 0.136-0.126 0.199-0.126 0.001-0 0.002-0 0.004-0 0.030 0 0.057 0.009 0.080 0.025l-0.001-0c0.023 0.016 0.042 0.043 0.056 0.080 0.009 0.026 0.014 0.066 0.014 0.119v0.253c0 0.037 0.003 0.063 0.009 0.076 0.005 0.011 0.013 0.020 0.023 0.025l0 0c0.010 0.006 0.030 0.009 0.059 0.009v0.023h-0.293v-0.023h0.012c0.028 0 0.047-0.004 0.058-0.013 0.011-0.009 0.020-0.022 0.023-0.037l0-0c0.002-0.006 0.003-0.027 0.003-0.061v-0.243c0-0.054-0.007-0.093-0.021-0.118s-0.038-0.037-0.071-0.037c-0.051 0-0.103 0.028-0.153 0.084v0.313c0 0.040 0.002 0.065 0.007 0.074 0.005 0.012 0.014 0.021 0.025 0.027l0 0c0.011 0.005 0.032 0.009 0.064 0.009v0.023h-0.293v-0.023h0.013c0.030 0 0.051-0.008 0.061-0.023s0.016-0.044 0.016-0.087v-0.22c0-0.071-0.002-0.114-0.005-0.13s-0.008-0.026-0.015-0.032-0.016-0.008-0.027-0.008c-0.016 0.001-0.031 0.004-0.044 0.010l0.001-0-0.010-0.023 0.179-0.073h0.028v0.126h0zM12.259 19.966c0.018 0 0.034 0.006 0.046 0.019s0.019 0.028 0.019 0.046c0 0 0 0.001 0 0.001 0 0.036-0.029 0.065-0.065 0.065-0 0-0 0-0 0v0c-0 0-0 0-0 0-0.018 0-0.035-0.007-0.046-0.019v0c-0.013-0.013-0.019-0.029-0.019-0.047s0.006-0.034 0.019-0.046c0.012-0.012 0.028-0.019 0.046-0.019 0 0 0.001 0 0.001 0h-0zM12.312 20.276v0.477c0 0.037 0.003 0.062 0.008 0.074s0.013 0.021 0.024 0.028c0.011 0.006 0.030 0.009 0.058 0.009v0.023h-0.288v-0.023c0.029 0 0.048-0.003 0.058-0.008 0.011-0.007 0.019-0.016 0.024-0.027l0-0c0.006-0.013 0.009-0.038 0.009-0.074v-0.229c0-0.064-0.002-0.106-0.006-0.125-0.003-0.014-0.008-0.023-0.014-0.029s-0.015-0.008-0.024-0.008c-0.001 0-0.002 0-0.002 0h0c-0.016 0.001-0.031 0.004-0.045 0.010l0.001-0-0.009-0.023 0.179-0.073h0.028v0zM12.453 20.294h0.279v0.024c-0.018 0-0.030 0.003-0.037 0.009s-0.011 0.014-0.011 0.023c0 0 0 0.001 0 0.001v-0c0 0.010 0.007 0.026 0.023 0.048l0.021 0.032 0.042 0.067 0.048-0.067c0.031-0.043 0.047-0.070 0.047-0.081 0-0.009-0.004-0.017-0.011-0.023s-0.019-0.009-0.036-0.009v-0.024h0.201v0.024c-0.021 0.001-0.039 0.007-0.055 0.018l0-0c-0.021 0.015-0.050 0.047-0.087 0.096l-0.081 0.108 0.148 0.213c0.036 0.052 0.062 0.083 0.078 0.094s0.036 0.017 0.060 0.018v0.023h-0.28v-0.023c0.001 0 0.003 0 0.004 0 0.015 0 0.030-0.005 0.042-0.013l-0 0c0.008-0.006 0.012-0.014 0.012-0.024s-0.014-0.035-0.041-0.075l-0.087-0.127-0.095 0.127c-0.029 0.039-0.044 0.062-0.044 0.070 0 0.010 0.005 0.020 0.014 0.028s0.024 0.013 0.044 0.014v0.023h-0.194v-0.023c0.015-0.002 0.029-0.008 0.041-0.016l-0 0c0.016-0.013 0.044-0.044 0.083-0.096l0.124-0.165-0.113-0.163c-0.032-0.047-0.057-0.076-0.074-0.088s-0.039-0.018-0.062-0.018c-0.001 0-0.003 0-0.004 0h0v-0.024zM14.198 20.009l0.010 0.206h-0.025c-0.005-0.036-0.011-0.062-0.020-0.078-0.012-0.024-0.030-0.042-0.053-0.055l-0.001-0c-0.023-0.012-0.051-0.018-0.080-0.018-0.003 0-0.005 0-0.008 0h-0.123v0.671c0 0.054 0.006 0.087 0.017 0.101 0.016 0.018 0.042 0.027 0.076 0.027h0.031v0.024h-0.373v-0.024h0.031c0.037 0 0.063-0.011 0.079-0.034 0.010-0.014 0.014-0.045 0.014-0.094v-0.671h-0.106c-0.041 0-0.070 0.003-0.087 0.009-0.024 0.010-0.044 0.026-0.057 0.047l-0 0c-0.016 0.023-0.025 0.055-0.029 0.095h-0.024l0.010-0.206h0.717zM14.29 20.517c-0.001 0.088 0.021 0.157 0.064 0.208s0.094 0.075 0.152 0.075c0.001 0 0.002 0 0.004 0 0.037 0 0.071-0.012 0.098-0.032l-0 0c0.029-0.021 0.053-0.058 0.072-0.11l0.020 0.013c-0.010 0.063-0.038 0.118-0.079 0.162l0-0c-0.039 0.045-0.096 0.073-0.16 0.073-0.001 0-0.003 0-0.004-0h0c-0.071 0-0.132-0.028-0.183-0.083s-0.076-0.13-0.076-0.224c0-0.101 0.026-0.181 0.078-0.237 0.047-0.052 0.115-0.085 0.19-0.085 0.002 0 0.004 0 0.006 0h-0c0.067 0 0.121 0.022 0.164 0.066s0.064 0.102 0.064 0.176h-0.41zM14.29 20.48h0.274c-0.002-0.038-0.007-0.065-0.014-0.080-0.010-0.024-0.027-0.043-0.048-0.057l-0.001-0c-0.019-0.013-0.042-0.020-0.067-0.021h-0c-0.036 0-0.068 0.014-0.096 0.042s-0.045 0.067-0.049 0.116zM15.284 20.661c-0.016 0.079-0.047 0.138-0.094 0.181s-0.098 0.063-0.155 0.063c-0.067 0-0.126-0.028-0.176-0.085s-0.075-0.133-0.075-0.229c0-0.093 0.028-0.169 0.083-0.227 0.049-0.054 0.119-0.087 0.197-0.087 0.001 0 0.002 0 0.003 0h-0c0.058 0 0.106 0.016 0.144 0.046s0.056 0.063 0.056 0.096c0 0.001 0 0.001 0 0.002 0 0.015-0.006 0.028-0.016 0.038v0c-0.011 0.010-0.025 0.015-0.041 0.015-0.001 0-0.003-0-0.004-0h0c-0.025 0-0.045-0.008-0.058-0.025-0.007-0.009-0.012-0.027-0.014-0.052-0.001-0.023-0.011-0.044-0.026-0.058l-0-0c-0.015-0.013-0.036-0.019-0.063-0.019-0.001-0-0.003-0-0.004-0-0.040 0-0.076 0.018-0.1 0.047l-0 0c-0.035 0.043-0.052 0.098-0.052 0.168 0 0.071 0.017 0.133 0.052 0.187s0.082 0.081 0.141 0.081c0.042 0 0.080-0.014 0.114-0.044 0.024-0.020 0.047-0.056 0.069-0.108l0.019 0.009zM15.544 19.966v0.434c0.048-0.052 0.086-0.086 0.114-0.101s0.056-0.022 0.084-0.022c0.001-0 0.002-0 0.003-0 0.032 0 0.061 0.011 0.084 0.028l-0-0c0.024 0.018 0.042 0.048 0.054 0.087 0.008 0.028 0.012 0.078 0.012 0.151v0.21c0 0.037 0.003 0.063 0.009 0.077 0.004 0.011 0.012 0.019 0.022 0.024l0 0c0.010 0.006 0.029 0.009 0.057 0.009v0.023h-0.291v-0.023h0.013c0.028 0 0.047-0.004 0.058-0.013 0.011-0.009 0.019-0.022 0.023-0.037l0-0c0.001-0.007 0.002-0.027 0.002-0.061v-0.21c0-0.065-0.004-0.107-0.010-0.128-0.006-0.019-0.017-0.034-0.032-0.046l-0-0c-0.014-0.010-0.032-0.015-0.051-0.015-0.001 0-0.002 0-0.003 0h0c-0.024 0-0.047 0.007-0.067 0.017l0.001-0c-0.023 0.011-0.050 0.034-0.082 0.068v0.314c0 0.040 0.002 0.066 0.007 0.076 0.006 0.011 0.014 0.019 0.025 0.025l0 0c0.012 0.006 0.033 0.010 0.064 0.010v0.023h-0.294v-0.023c0.002 0 0.004 0 0.006 0 0.020 0 0.040-0.005 0.057-0.013l-0.001 0c0.010-0.006 0.017-0.014 0.021-0.024l0-0c0.005-0.012 0.008-0.037 0.008-0.074v-0.537c0-0.068-0.002-0.11-0.005-0.125s-0.008-0.026-0.015-0.031c-0.007-0.005-0.015-0.009-0.025-0.009-0.001 0-0.002 0-0.003 0h0c-0.016 0.001-0.031 0.005-0.045 0.011l0.001-0-0.009-0.023 0.177-0.073h0.030zM16.206 20.402c0.069-0.084 0.136-0.126 0.199-0.126 0.032 0 0.060 0.008 0.084 0.024s0.042 0.043 0.055 0.080c0.010 0.026 0.014 0.066 0.014 0.119v0.253c0 0.037 0.003 0.063 0.009 0.076 0.005 0.011 0.013 0.019 0.022 0.025l0 0c0.011 0.006 0.030 0.009 0.059 0.009v0.023h-0.294v-0.023h0.012c0.028 0 0.047-0.004 0.058-0.013 0.011-0.009 0.020-0.022 0.023-0.037l0-0c0.002-0.006 0.003-0.027 0.003-0.061v-0.243c0-0.054-0.007-0.093-0.021-0.118s-0.038-0.037-0.071-0.037c-0.051 0-0.102 0.028-0.153 0.084v0.313c0 0.040 0.002 0.065 0.007 0.074 0.005 0.012 0.014 0.021 0.025 0.027l0 0c0.011 0.005 0.032 0.009 0.064 0.009v0.023h-0.293v-0.023h0.013c0.030 0 0.051-0.008 0.061-0.023s0.016-0.044 0.016-0.087v-0.22c0-0.071-0.002-0.114-0.005-0.13s-0.008-0.026-0.015-0.032c-0.007-0.005-0.016-0.009-0.025-0.009-0.001 0-0.001 0-0.002 0h0c-0.012 0-0.027 0.003-0.043 0.010l-0.010-0.023 0.179-0.073h0.028v0.126h-0zM16.987 20.276c0.090 0 0.162 0.034 0.217 0.102 0.043 0.053 0.069 0.122 0.069 0.197 0 0.001 0 0.003-0 0.004v-0c0 0.053-0.013 0.107-0.038 0.161-0.023 0.051-0.059 0.093-0.104 0.123l-0.001 0.001c-0.045 0.028-0.094 0.041-0.149 0.041-0.089 0-0.161-0.035-0.213-0.107-0.041-0.055-0.066-0.124-0.066-0.2 0-0.001 0-0.002 0-0.003v0c0-0.054 0.013-0.108 0.040-0.162s0.063-0.093 0.107-0.119c0.040-0.024 0.088-0.039 0.139-0.039 0 0 0 0 0 0v0zM16.967 20.319c-0.023 0-0.046 0.006-0.069 0.020s-0.042 0.037-0.056 0.072c-0.014 0.034-0.021 0.078-0.021 0.131 0 0.086 0.017 0.161 0.052 0.223s0.080 0.094 0.135 0.094c0.042 0 0.077-0.017 0.104-0.052s0.041-0.094 0.041-0.178c0-0.105-0.022-0.188-0.068-0.249-0.030-0.042-0.070-0.062-0.117-0.062zM17.565 19.966v0.787c0 0.037 0.003 0.062 0.008 0.074s0.014 0.021 0.025 0.027l0 0c0.011 0.006 0.032 0.009 0.063 0.009v0.023h-0.291v-0.023c0.027 0 0.046-0.003 0.055-0.008s0.018-0.015 0.023-0.028 0.008-0.038 0.008-0.074v-0.539c0-0.067-0.002-0.108-0.004-0.123s-0.008-0.026-0.015-0.031c-0.006-0.005-0.015-0.009-0.024-0.009-0.001 0-0.001 0-0.002 0h0c-0.016 0.001-0.030 0.005-0.044 0.011l0.001-0-0.011-0.023 0.177-0.073h0.029v0zM18.021 20.276c0.089 0 0.162 0.034 0.216 0.102 0.046 0.058 0.069 0.125 0.069 0.201 0 0.053-0.013 0.107-0.038 0.161s-0.060 0.096-0.105 0.123-0.094 0.041-0.149 0.041c-0.089 0-0.161-0.035-0.213-0.107-0.042-0.055-0.067-0.124-0.067-0.199 0-0.001 0-0.002 0-0.003v0c0-0.054 0.014-0.108 0.041-0.162s0.063-0.093 0.106-0.119c0.044-0.026 0.090-0.039 0.14-0.039zM18.001 20.319c-0.026 0-0.049 0.008-0.070 0.020l0.001-0c-0.023 0.014-0.042 0.037-0.056 0.072s-0.022 0.078-0.022 0.131c0 0.086 0.017 0.161 0.052 0.223s0.080 0.094 0.136 0.094c0.042 0 0.076-0.017 0.103-0.052s0.041-0.094 0.041-0.178c0-0.105-0.023-0.188-0.068-0.249-0.031-0.042-0.070-0.062-0.117-0.062zM18.554 20.671c-0.035-0.016-0.063-0.042-0.083-0.073l-0-0.001c-0.018-0.029-0.029-0.065-0.029-0.103 0-0.001 0-0.001 0-0.002v0c0-0.059 0.022-0.109 0.066-0.151s0.1-0.064 0.17-0.064c0.056 0 0.105 0.014 0.147 0.041h0.125c0.018 0 0.030 0.001 0.033 0.002s0.005 0.003 0.006 0.005l0 0c0.003 0.005 0.004 0.011 0.004 0.018 0 0.001-0 0.002-0 0.003v-0c0 0.001 0 0.002 0 0.003 0 0.007-0.001 0.014-0.004 0.020l0-0c-0.001 0.002-0.003 0.004-0.007 0.005-0.007 0.001-0.016 0.002-0.025 0.002-0.003 0-0.006-0-0.008-0l0 0h-0.077c0.024 0.031 0.036 0.071 0.036 0.119 0 0.055-0.021 0.102-0.064 0.142s-0.099 0.059-0.17 0.059c-0.030 0-0.059-0.004-0.090-0.013-0.019 0.017-0.032 0.031-0.038 0.043-0.006 0.009-0.009 0.020-0.010 0.031l-0 0c0 0.007 0.003 0.014 0.011 0.021s0.021 0.012 0.042 0.015c0.012 0.002 0.043 0.003 0.091 0.004 0.089 0.002 0.147 0.005 0.173 0.009 0.040 0.005 0.072 0.020 0.096 0.045 0.022 0.022 0.036 0.053 0.036 0.086 0 0.001 0 0.002-0 0.003v-0c0 0.049-0.023 0.095-0.068 0.137-0.067 0.063-0.155 0.094-0.264 0.094-0.083 0-0.154-0.019-0.211-0.056-0.032-0.021-0.049-0.044-0.049-0.067 0-0.010 0.002-0.021 0.007-0.031 0.007-0.016 0.023-0.038 0.045-0.067 0.003-0.004 0.025-0.027 0.066-0.070-0.023-0.014-0.038-0.025-0.048-0.036s-0.014-0.023-0.014-0.036c0-0.015 0.006-0.033 0.018-0.053s0.041-0.049 0.085-0.086zM18.666 20.307c-0 0-0 0-0.001 0-0.032 0-0.061 0.015-0.080 0.038l-0 0c-0.021 0.026-0.032 0.065-0.032 0.117 0 0.068 0.015 0.121 0.044 0.159 0.019 0.026 0.050 0.043 0.084 0.043 0 0 0.001 0 0.002 0h-0c0.033 0 0.060-0.012 0.081-0.037s0.032-0.063 0.032-0.116c0-0.069-0.015-0.123-0.044-0.162-0.019-0.026-0.050-0.043-0.084-0.043-0 0-0.001 0-0.001 0h0zM18.547 20.887c-0.017 0.018-0.032 0.038-0.045 0.060l-0.001 0.002c-0.009 0.015-0.015 0.033-0.016 0.052v0c0 0.021 0.012 0.039 0.038 0.054 0.043 0.027 0.105 0.040 0.187 0.040 0.078 0 0.135-0.014 0.172-0.041s0.055-0.057 0.055-0.088c0-0.022-0.011-0.038-0.033-0.048s-0.067-0.015-0.133-0.017c-0.080-0.001-0.158-0.006-0.234-0.015l0.010 0.001zM19.21 19.966c0.018 0 0.034 0.006 0.046 0.019s0.019 0.028 0.019 0.046c0 0 0 0.001 0 0.001 0 0.036-0.029 0.065-0.065 0.065-0 0-0 0-0 0v0c-0 0-0 0-0 0-0.036 0-0.066-0.029-0.066-0.066 0-0 0-0 0-0.001v0c0-0.018 0.006-0.034 0.019-0.046 0.012-0.012 0.028-0.019 0.045-0.019 0 0 0.001 0 0.001 0h-0zM19.264 20.276v0.477c0 0.037 0.003 0.062 0.008 0.074s0.013 0.021 0.024 0.028c0.011 0.006 0.030 0.009 0.058 0.009v0.023h-0.288v-0.023c0.029 0 0.049-0.003 0.058-0.008 0.011-0.006 0.019-0.016 0.024-0.027l0-0c0.006-0.013 0.009-0.038 0.009-0.074v-0.229c0-0.064-0.002-0.106-0.006-0.125-0.002-0.011-0.007-0.021-0.014-0.029l0 0c-0.007-0.005-0.015-0.008-0.024-0.008-0.001 0-0.002 0-0.002 0h0c-0.016 0.001-0.031 0.004-0.045 0.010l0.001-0-0.009-0.023 0.179-0.073h0.028v0zM19.528 20.517c-0 0.088 0.021 0.157 0.064 0.208s0.094 0.075 0.152 0.075c0.001 0 0.002 0 0.004 0 0.037 0 0.071-0.012 0.098-0.032l-0 0c0.029-0.021 0.052-0.058 0.072-0.11l0.020 0.013c-0.010 0.063-0.038 0.118-0.079 0.162l0-0c-0.039 0.045-0.096 0.073-0.16 0.073-0.001 0-0.003 0-0.004-0h0c-0.001 0-0.001 0-0.002 0-0.072 0-0.137-0.032-0.181-0.083l-0-0c-0.051-0.055-0.076-0.13-0.076-0.224 0-0.101 0.026-0.181 0.078-0.237 0.047-0.052 0.115-0.085 0.19-0.085 0.002 0 0.004 0 0.006 0h-0c0.066 0 0.121 0.022 0.164 0.066s0.064 0.102 0.064 0.176h-0.41zM19.528 20.48h0.275c-0.002-0.038-0.007-0.065-0.014-0.080-0.010-0.024-0.027-0.043-0.047-0.057l-0-0c-0.019-0.013-0.042-0.020-0.067-0.021h-0c-0.036 0-0.068 0.014-0.096 0.042s-0.045 0.067-0.050 0.116zM20.401 20.276v0.202h-0.021c-0.016-0.063-0.037-0.106-0.063-0.129-0.025-0.021-0.058-0.034-0.093-0.034-0.002 0-0.003 0-0.005 0h0c-0.001-0-0.003-0-0.005-0-0.026 0-0.050 0.009-0.069 0.024l0-0c-0.018 0.016-0.028 0.033-0.028 0.053 0 0.024 0.007 0.045 0.020 0.062s0.041 0.036 0.082 0.056l0.094 0.046c0.088 0.043 0.132 0.099 0.132 0.169 0 0.001 0 0.003 0 0.005 0 0.051-0.024 0.096-0.061 0.125l-0 0c-0.037 0.031-0.084 0.049-0.136 0.049-0 0-0 0-0 0h0c-0.045-0.001-0.087-0.008-0.128-0.020l0.003 0.001c-0.010-0.004-0.022-0.006-0.034-0.006h-0c-0.010 0-0.018 0.005-0.024 0.017h-0.021v-0.212h0.021c0.012 0.060 0.035 0.106 0.069 0.136s0.072 0.046 0.114 0.046c0.030 0 0.054-0.009 0.073-0.026s0.028-0.038 0.028-0.063c0-0.030-0.010-0.055-0.031-0.075s-0.063-0.046-0.125-0.077-0.103-0.059-0.123-0.084-0.029-0.056-0.029-0.093c0-0.049 0.017-0.090 0.050-0.123s0.077-0.049 0.13-0.049c0.023 0 0.052 0.005 0.085 0.015 0.022 0.006 0.037 0.010 0.044 0.010 0 0 0.001 0 0.002 0 0.006 0 0.011-0.002 0.015-0.005l-0 0c0.006-0.006 0.010-0.012 0.013-0.020l0-0h0.021v-0zM21.584 20.644l0.021 0.004-0.075 0.238h-0.68v-0.024h0.033c0.037 0 0.064-0.012 0.080-0.036 0.009-0.014 0.014-0.046 0.014-0.096v-0.566c0-0.055-0.006-0.089-0.018-0.103-0.017-0.019-0.042-0.029-0.075-0.029h-0.033v-0.024h0.398v0.024c-0.047-0-0.080 0.003-0.098 0.013-0.017 0.007-0.030 0.019-0.038 0.034l-0 0c-0.007 0.014-0.010 0.047-0.010 0.099v0.552c0 0.036 0.003 0.061 0.010 0.074 0.005 0.009 0.014 0.016 0.023 0.020l0 0c0.011 0.004 0.044 0.006 0.101 0.006h0.064c0.067 0 0.114-0.005 0.142-0.015s0.052-0.028 0.075-0.053c0.022-0.025 0.044-0.065 0.067-0.119zM22.281 20.009l0.010 0.206h-0.025c-0.004-0.036-0.011-0.062-0.019-0.078-0.012-0.023-0.030-0.042-0.052-0.055l-0.001-0c-0.023-0.012-0.051-0.018-0.080-0.018-0.003 0-0.005 0-0.008 0h-0.123v0.671c0 0.054 0.006 0.087 0.017 0.101 0.017 0.018 0.042 0.027 0.076 0.027h0.031v0.024h-0.372v-0.024h0.031c0.037 0 0.063-0.011 0.079-0.034 0.009-0.014 0.014-0.045 0.014-0.094v-0.671h-0.106c-0.041 0-0.070 0.003-0.087 0.009-0.024 0.010-0.044 0.026-0.058 0.047l-0 0c-0.016 0.023-0.025 0.055-0.029 0.095h-0.024l0.010-0.206h0.716zM22.347 20.887v-0.024h0.033c0.037 0 0.063-0.012 0.079-0.036 0.009-0.014 0.014-0.046 0.014-0.096v-0.567c0-0.055-0.006-0.089-0.018-0.103-0.017-0.019-0.042-0.029-0.075-0.029h-0.033v-0.024h0.357c0.131 0 0.231 0.015 0.3 0.044s0.123 0.080 0.165 0.149c0.041 0.069 0.063 0.15 0.063 0.241 0 0.122-0.037 0.224-0.111 0.306-0.083 0.092-0.21 0.137-0.381 0.137l-0.392 0zM22.598 20.824c0.055 0.012 0.101 0.018 0.138 0.018 0.1 0 0.183-0.035 0.249-0.106s0.099-0.166 0.099-0.286c0-0.121-0.033-0.217-0.099-0.287s-0.151-0.105-0.255-0.105c-0.039 0-0.083 0.006-0.133 0.018v0.747zM31.53 12.303c0 0.119-0.042 0.221-0.126 0.305-0.075 0.078-0.181 0.127-0.298 0.127-0.003 0-0.005-0-0.008-0h0c-0.002 0-0.004 0-0.007 0-0.117 0-0.223-0.048-0.298-0.126l-0-0c-0.078-0.076-0.127-0.181-0.127-0.298 0-0.002 0-0.005 0-0.007v0c0-0.119 0.042-0.221 0.127-0.305s0.186-0.126 0.305-0.126c0.119 0 0.221 0.042 0.305 0.126s0.126 0.186 0.126 0.305zM31.482 12.303c0-0.106-0.037-0.196-0.112-0.271s-0.165-0.112-0.271-0.112-0.197 0.038-0.271 0.112c-0.069 0.067-0.112 0.162-0.112 0.266 0 0.002 0 0.004 0 0.006v-0c0 0.106 0.038 0.196 0.112 0.271s0.165 0.113 0.271 0.113 0.196-0.038 0.271-0.113c0.075-0.075 0.112-0.165 0.112-0.271zM30.9 12.052h0.22c0.053 0 0.093 0.011 0.119 0.034s0.040 0.050 0.040 0.083c0 0.030-0.010 0.055-0.029 0.076s-0.051 0.035-0.094 0.044l0.123 0.157c0.016 0.020 0.029 0.033 0.039 0.040 0.009 0.005 0.019 0.008 0.030 0.009l0 0v0.019h-0.103l-0.171-0.216h-0.045v0.12c0 0.033 0.003 0.053 0.011 0.062s0.023 0.014 0.047 0.016v0.019h-0.192v-0.019c0.024-0.002 0.040-0.007 0.047-0.016s0.012-0.029 0.012-0.059v-0.278c0-0.027-0.004-0.045-0.012-0.054s-0.022-0.015-0.042-0.017v-0.019zM31.029 12.269c0.014 0.001 0.024 0.001 0.031 0.001 0.047 0 0.082-0.009 0.103-0.027s0.032-0.041 0.032-0.070c0-0.001 0-0.002 0-0.003 0-0.026-0.011-0.050-0.029-0.066l-0-0c-0.019-0.018-0.045-0.027-0.079-0.027-0.021 0.001-0.041 0.005-0.060 0.011l0.001-0v0.181h0zM11.192 13.67c0.506-0.354 0.942-0.731 1.36-1.186 0.112-0.123 0.194-0.227 0.232-0.376 0-0.316-0.504-0.232-0.694-0.232-0.372 0.101-0.733 0.161-1.099 0.289-0.918 0.318-1.588 0.582-2.247 0.866l0.222-0.085c-0.35 0.561-0.65 1.072-0.926 1.678-0.039 0.087-0.478 0.868-0.376 0.868 1.226-0.505 2.441-1.060 3.53-1.823zM25.081 16.563c-0.493 0.493-0.906 0.938-1.302 1.504-0.061 0.087-0.128 0.185-0.203 0.26-0.282 0-0.706 0.187-0.347-0.231 0.354-0.566 0.827-1.042 1.273-1.534 0.482-0.531 1.033-0.991 1.563-1.476 0.065-0.060 0.208-0.463 0.145-0.463-0.623 0.356-1.17 0.754-1.736 1.186-0.497 0.38-1.272 0.839-1.909 0.839-0.058-0.029-0.203-0.055-0.203-0.145-0.083-0.084 0.046-0.422 0.116-0.492-0.091 0.054-1.532 1.073-1.707 0.723-0.318-0.318 0.643-1.254 0.81-1.504 0.173-0.116 0.307-0.323 0.434-0.492 0-0.127-0.432 0.056-0.521 0.145-0.733 0.419-1.243 1.025-1.765 1.678-0.209 0.167-0.478 0.6-0.753 0.463-0.442 0 0.784-1.216 0.81-1.244 0.265-0.285 0.539-0.55 0.826-0.799l0.013-0.011c-0.208-0.208-1.408 0.83-1.62 1.013-0.559 0.479-1.086 1.124-1.794 1.36-0.251 0-0.781 0.081-0.781-0.318-0.085-0.169 0.083-0.598 0.145-0.781-0.187 0-0.293-0.087-0.463-0.087 0 0.107-0.138 0.316-0.203 0.405-0.367 0.505-0.867 1.070-1.476 1.273-0.11 0.11-0.463 0.052-0.463-0.173-0.168-0.168 0.166-0.376-0.087-0.376 0 0.133-0.856 0.632-1.042 0.695-0.4 0.199-0.521 0.244-0.521-0.203 0.236-0.71 0.692-1.242 1.186-1.736 0-0.036 0.004-0.033 0.029-0.058 0-0.267-0.483 0.111-0.608 0.174-0.754 0.565-1.592 1.322-2.141 2.054-0.172 0.172-0.346-0.031-0.434 0.145-0.105 0.105-0.252 0.211-0.376 0.087-0.088 0-0.086-0.203-0.029-0.26l0.636-1.013c-0.195 0-0.607 0.354-0.81 0.463-0.726 0.391-1.685 0.868-2.517 0.868-0.398-0.399 0.217-0.357 0.55-0.434 1.356-0.313 2.657-1.259 3.646-2.199 0.27-0.257 0.462-0.549 0.694-0.839 0.76-0.95 1.525-1.908 2.488-2.662 0.176-0.138 0.794-0.711 1.071-0.434 0.156 0.104 0.058 0.12 0.058 0.203-0.665 0.598-1.294 1.181-1.881 1.852-0.61 0.697-1.17 1.429-1.881 2.026-0.354 0.297-0.613 0.616-0.839 1.013-0.055 0.096-0.394 0.502-0.318 0.579 0.372-0.31 0.756-0.698 1.099-1.042 0.512-0.512 1.169-1.157 1.939-1.157 0.044 0.044 0.145 0.047 0.145 0.116 0.155 0 0.029 0.339 0.029 0.405-0.446 0.446-0.86 1.047-1.186 1.591 0 0.162 0.843-0.331 0.955-0.405 0.19-0.189 0.41-0.315 0.55-0.55 0.266-0.444 0.71-0.873 1.129-1.186 0-0.073 0.636-0.475 0.636-0.347 0.253 0 0.030 0.289-0.087 0.347s-0.197 0.11-0.289 0.203c0.084 0 0.347 0.067 0.347 0.173 0.033 0 0.318 0.115 0.318 0.116 0.147 0 0.2 0.029 0.347 0.029 0.541-0.541 0.931-1.183 1.765-1.302 0.68 0 0.223 0.674-0.058 0.955-0.431 0.323-0.892 0.694-1.418 0.694 0 0.068-0.159 0.333-0.058 0.434 0 0.406 0.765 0.046 0.926-0.116 0.526-0.526 1.165-1.036 1.765-1.476 0.276-0.202 1.205-0.936 1.505-0.636 0 0.168-0.019 0.395 0.202 0.173 0.229-0.172 0.929-0.518 1.186-0.26 0 0.050 0.096 0.106 0.029 0.174 0 0.060-0.67 0.843-0.781 0.955-0.142 0.212-0.319 0.407-0.434 0.636 0.198 0 0.258-0.089 0.434-0.202 0.714-0.462 1.368-0.967 2.025-1.505 0.279-0.228 0.414-0.502 0.781-0.318 0 0.224 0.057 0.203-0.174 0.376-0.295 0.393-0.776 0.678-1.070 1.071-0.146 0.146-0.257 0.315-0.405 0.463 0 0.393 1.808-0.882 1.968-1.042 0.488-0.293 0.989-0.749 1.504-0.955 0.085-0.051 0.695-0.411 0.695-0.116 0.114 0.114-0.225 0.419-0.29 0.55 0.255-0.182 3.154-2.226 3.154-2.286 0.47 0 0.303 0.376 0.203 0.376-0.387 0.291-0.819 0.529-1.215 0.81-0.596 0.422-1.176 0.871-1.765 1.302-0.357 0.261-1.14 0.642-0.868 1.186 0.088 0 0.131 0.18 0.376 0.058 0.181 0 1.073-0.466 1.158-0.55 1.014-0.507 1.975-1.165 2.777-1.968 0.342 0 0.061 0.461-0.116 0.579-0.552 0.553-1.308 0.948-1.968 1.36-0.244 0.244-0.816 0.45-1.157 0.636-0.344 0.188-0.865 0.45-1.244 0.26-0.197 0-0.318-0.296-0.318-0.434-0.108 0.091-0.81 0.659-0.81 0.782zM14.838 16.563c0 0.017-0.172 0.272-0.203 0.318-0.207 0.619 0.054 0.456 0.434 0.202 0.038-0.056 0.068-0.097 0.116-0.145 0.091-0.061 0.836-0.897 0.521-0.897-0.065-0.065-0.226-0.151-0.116-0.26-0.284 0.229-0.532 0.486-0.744 0.77l-0.008 0.011zM17.76 15.377c-0.112 0.112-0.184 0.195-0.26 0.347 0.37-0.123 0.839-0.347 0.839-0.723-0.237 0.119-0.398 0.195-0.579 0.376zM26.788 11.963c0.164 0.165-0.38 0.546-0.521 0.405-0.127 0-0.015-0.434 0.087-0.434 0.094-0.094 0.434-0.126 0.434 0.029zM6.707 13.757c0.587-0.352 1.263-0.617 1.881-0.926 0.061-0.061 0.289-0.381 0.289-0.463-0.563 0.352-1.179 0.607-1.736 0.955-0.248 0.106-0.521 0.173-0.521-0.174 0.015 0 0.116-0.077 0.116-0.087 0.455 0 0.924-0.367 1.331-0.579 0.496-0.258 0.917-0.573 1.389-0.868 0.056-0.111 0.556-0.723 0.579-0.723 0.107-0.106 0.614-0.093 0.405 0.116-0.191 0.383-0.646 0.629-0.839 1.013-0.072 0.072-0.438 0.492-0.289 0.492 0.492-0.164 0.969-0.441 1.476-0.579 0.488-0.133 1.001-0.376 1.505-0.376 0.339-0.113 0.897 0.036 0.897 0.463-0.087 0.174-0.072 0.333-0.231 0.492-0.215 0.429-0.812 0.851-1.186 1.157-1.282 1.048-2.833 1.623-4.34 2.257-0.448 1.045-0.851 2.098-1.273 3.154-0.149 0.149-0.189 0.13-0.405 0.202-0.24 0.12-0.81 0.698-0.81 0.058 0.458-0.801 0.92-1.608 1.331-2.431 0.144-0.292 0.269-0.519 0.402-0.741l-0.026 0.047c-0.236 0-0.474 0.087-0.723 0.087-0.224 0.075-1.331 0.048-1.331-0.405-0.195-0.195 0.231-0.775 0.231-0.116 0.331 0.331 0.751 0.174 1.186 0.174 0.339-0.169 0.795-0.061 1.013-0.434 0.443-0.759 0.866-1.541 1.331-2.286 0-0.050-0.038-0.029-0.087-0.029-2.317 1.236-4.94 2.491-6.742 4.456-0.176 0.193-0.807 1.106-0.694 1.418 0.141 0.39 0.911 0.311 1.157 0.289 0.451-0.039 1.031-0.272 1.447-0.434 0.222-0.086 0.576-0.27 0.752-0.405 0.038-0.029 0.083-0.014 0.116 0.029 0.144 0.19-0.781 0.529-0.897 0.579-0.623 0.267-1.344 0.495-2.026 0.463-0.265-0.013-0.657-0.033-0.81-0.289-0.137-0.229-0.115-0.355-0.058-0.579 0.147-0.574 0.611-1.129 1.042-1.534 0.836-0.784 1.764-1.401 2.72-2.025 0.785-0.513 1.618-0.954 2.431-1.418z"></path>
</symbol>
<symbol id="icon-systems-europe" viewBox="0 0 32 32">
<title>systems-europe</title>
<path fill="#fff" style="fill: var(--color2, #fff)" d="M0 0h32v32h-32v-32z"></path>
<path fill="#f0c660" style="fill: var(--color7, #f0c660)" d="M8.014 16.329l-0.43 1.542c-0.178 0.637-0.96 1.144-1.622 1.144h-3.827l0.798-2.685h5.082zM3.073 15.857l0.473-1.594c0.18-0.608 0.934-1.076 1.568-1.076h3.777l-0.746 2.67-5.073 0z"></path>
<path fill="#f0c660" style="fill: var(--color7, #f0c660)" d="M9.494 13.166l-1.612 5.844h0.98l1.483-5.848c0.117-0.462-0.252-1.172-0.932-1.172h-5.477l-0.224 0.756h5.44c0.293 0 0.391 0.245 0.343 0.419z"></path>
<path fill="#255398" style="fill: var(--color8, #255398)" d="M13.776 11.973c0.279 0 0.478 0.005 0.598 0.017 0.193 0.025 0.34 0.080 0.439 0.164 0.105 0.086 0.172 0.189 0.203 0.311s0.045 0.274 0.045 0.46h-0.607v-0.127c0-0.117-0.020-0.198-0.062-0.243-0.049-0.056-0.175-0.084-0.377-0.084h-0.247c-0.24 0-0.395 0.028-0.464 0.084-0.037 0.028-0.065 0.066-0.080 0.11l-0.001 0.002c-0.016 0.046-0.024 0.115-0.024 0.207 0.005 0.105 0.015 0.18 0.027 0.226s0.044 0.083 0.094 0.109c0.041 0.022 0.092 0.038 0.152 0.050s0.131 0.020 0.213 0.026c0.082 0.006 0.16 0.011 0.233 0.016 0.249 0.015 0.454 0.036 0.616 0.059s0.286 0.068 0.372 0.133c0.052 0.042 0.093 0.093 0.123 0.151s0.052 0.12 0.065 0.184c0.013 0.064 0.021 0.12 0.024 0.167s0.006 0.126 0.010 0.235c0 0.174-0.024 0.329-0.074 0.464s-0.121 0.237-0.216 0.307c-0.146 0.109-0.447 0.163-0.901 0.163h-0.226c-0.201 0-0.374-0.011-0.52-0.034s-0.269-0.077-0.371-0.164c-0.071-0.059-0.126-0.133-0.163-0.218l-0.001-0.004c-0.032-0.075-0.055-0.163-0.063-0.254l-0-0.003c-0.008-0.094-0.012-0.205-0.012-0.316 0-0.011 0-0.021 0-0.032v0.002h0.6c0 0.036-0.003 0.065-0.009 0.088 0.005 0.096 0.013 0.171 0.025 0.221s0.035 0.091 0.070 0.123c0.040 0.037 0.094 0.062 0.161 0.074s0.161 0.021 0.284 0.026c0.058 0 0.102 0.002 0.13 0.009 0.153-0.007 0.269-0.015 0.345-0.024s0.142-0.029 0.194-0.059c0.093-0.057 0.139-0.188 0.139-0.394 0-0.145-0.030-0.248-0.088-0.311-0.023-0.020-0.051-0.037-0.081-0.048l-0.002-0.001c-0.029-0.011-0.063-0.020-0.098-0.025l-0.003-0c-0.036-0.005-0.080-0.010-0.124-0.012l-0.003-0c-0.052-0.003-0.11-0.006-0.175-0.010-0.112-0.005-0.217-0.010-0.316-0.015-0.108-0.005-0.205-0.013-0.302-0.025l0.019 0.002c-0.1-0.013-0.19-0.033-0.276-0.061l0.010 0.003c-0.088-0.028-0.161-0.064-0.22-0.109-0.165-0.122-0.253-0.35-0.264-0.687 0-0.352 0.080-0.598 0.239-0.738 0.164-0.131 0.477-0.197 0.938-0.197zM16.225 15.14h-0.255l-0.36-1.097-0.369-1.101h0.549l0.558 1.872h0.007l0.424-1.872h0.54l-0.31 1.235-0.301 1.226c-0.038 0.156-0.086 0.286-0.143 0.389-0.055 0.101-0.134 0.182-0.231 0.237l-0.003 0.002c-0.101 0.053-0.247 0.080-0.436 0.080-0.098 0-0.167-0.003-0.209-0.008v-0.398c0.013 0 0.032 0.001 0.057 0.004s0.045 0.004 0.055 0.004c0.137 0 0.234-0.047 0.291-0.142s0.102-0.238 0.136-0.431zM19.412 13.543h-0.523c0-0.112-0.037-0.185-0.111-0.218s-0.18-0.049-0.316-0.049c-0.172 0-0.295 0.015-0.369 0.046-0.064 0.047-0.096 0.129-0.096 0.247 0 0.061 0.009 0.109 0.027 0.144s0.064 0.062 0.136 0.077c0.117 0.018 0.24 0.026 0.368 0.026 0.27 0.004 0.473 0.026 0.608 0.070s0.228 0.113 0.277 0.208c0.049 0.095 0.075 0.235 0.078 0.418 0 0.152-0.031 0.273-0.092 0.364-0.059 0.088-0.142 0.156-0.24 0.196l-0.004 0.001c-0.1 0.041-0.207 0.066-0.317 0.077-0.112 0.010-0.243 0.015-0.395 0.015h-0.029c-0.193 0-0.351-0.008-0.474-0.025-0.122-0.017-0.221-0.057-0.296-0.122-0.058-0.061-0.104-0.134-0.133-0.215l-0.001-0.004c-0.030-0.085-0.045-0.2-0.045-0.346h0.532c0 0.163 0.037 0.267 0.114 0.31 0.044 0.022 0.135 0.039 0.271 0.051 0.028-0.006 0.063-0.009 0.104-0.009h0.043c0.039 0 0.066 0.003 0.080 0.009 0.122-0.006 0.212-0.027 0.271-0.064s0.088-0.113 0.088-0.23c0-0.122-0.041-0.202-0.122-0.24s-0.195-0.060-0.342-0.066c-0.261-0.005-0.456-0.016-0.583-0.031-0.129-0.016-0.229-0.054-0.301-0.116-0.103-0.090-0.154-0.25-0.154-0.482v-0.066c0-0.152 0.027-0.27 0.082-0.355s0.139-0.147 0.253-0.186c0.131-0.041 0.351-0.062 0.661-0.062 0.175 0 0.316 0.006 0.424 0.019s0.201 0.044 0.28 0.095c0.165 0.103 0.247 0.274 0.247 0.514zM19.89 14.479v-1.131h-0.272v-0.406h0.272v-0.503h0.528v0.503h0.847v0.406h-0.847v1.139c0 0.076 0.006 0.133 0.017 0.172s0.033 0.066 0.065 0.081c0.032 0.016 0.082 0.024 0.148 0.024 0.176 0 0.264-0.109 0.264-0.326v-0.138h0.466c0 0.321-0.043 0.541-0.13 0.661-0.104 0.137-0.304 0.205-0.599 0.205-0.138 0-0.261-0.010-0.367-0.029s-0.187-0.059-0.245-0.119c-0.098-0.098-0.146-0.277-0.146-0.54zM23.625 14.143h-1.512c0 0.047-0.003 0.088-0.008 0.122 0.006 0.115 0.017 0.21 0.035 0.282s0.052 0.123 0.103 0.154c0.056 0.027 0.108 0.044 0.155 0.052s0.124 0.010 0.23 0.010c0.121 0 0.206-0.004 0.255-0.012s0.093-0.027 0.13-0.058c0.053-0.043 0.080-0.125 0.080-0.247h0.532c0 0.268-0.068 0.459-0.205 0.573-0.078 0.061-0.179 0.101-0.304 0.119s-0.288 0.028-0.488 0.028c-0.13 0-0.246-0.006-0.349-0.016-0.106-0.011-0.203-0.035-0.294-0.071l0.008 0.003c-0.086-0.032-0.158-0.082-0.215-0.147l-0-0.001c-0.083-0.099-0.137-0.226-0.161-0.382s-0.036-0.336-0.036-0.544c0-0.435 0.074-0.727 0.222-0.875 0.149-0.145 0.413-0.218 0.792-0.218 0.402 0.014 0.662 0.074 0.779 0.18 0.075 0.065 0.13 0.153 0.166 0.265s0.057 0.221 0.066 0.326c0.008 0.105 0.014 0.257 0.019 0.456zM23.093 13.807c0-0.216-0.024-0.35-0.071-0.401-0.022-0.022-0.050-0.040-0.080-0.050l-0.002-0c-0.033-0.012-0.071-0.022-0.11-0.026l-0.002-0c-0.033-0.005-0.073-0.008-0.114-0.010l-0.003-0c-0.038-0.002-0.077-0.003-0.116-0.005-0.112 0.006-0.199 0.014-0.263 0.027s-0.112 0.037-0.143 0.073c-0.033 0.035-0.054 0.083-0.062 0.145s-0.013 0.145-0.013 0.248l0.98 0zM24.568 13.259h0.020c0.097-0.229 0.328-0.343 0.691-0.343 0.381 0 0.599 0.13 0.654 0.389h0.016c0.039-0.104 0.095-0.185 0.169-0.241 0.067-0.053 0.148-0.092 0.235-0.112l0.004-0.001c0.087-0.020 0.188-0.033 0.292-0.035l0.002-0c0.209 0 0.369 0.031 0.478 0.095s0.182 0.149 0.218 0.258c0.035 0.109 0.054 0.246 0.054 0.415v1.457h-0.532v-1.373c0-0.112-0.010-0.201-0.029-0.265s-0.056-0.112-0.109-0.143c-0.052-0.030-0.129-0.046-0.23-0.046-0.178 0.004-0.308 0.044-0.387 0.119s-0.119 0.216-0.119 0.422v1.285h-0.532v-1.399c0-0.156-0.023-0.266-0.069-0.331s-0.145-0.097-0.294-0.097c-0.185 0.004-0.317 0.045-0.395 0.122s-0.117 0.226-0.117 0.443v1.261h-0.528v-2.197h0.508v0.317h0zM29.785 13.543h-0.523c0-0.112-0.037-0.185-0.111-0.218s-0.18-0.049-0.316-0.049c-0.172 0-0.294 0.015-0.368 0.046-0.064 0.047-0.096 0.129-0.096 0.247 0 0.061 0.009 0.109 0.027 0.144s0.063 0.062 0.136 0.077c0.117 0.018 0.24 0.026 0.368 0.026 0.27 0.004 0.473 0.026 0.608 0.070s0.227 0.113 0.277 0.208c0.049 0.095 0.074 0.235 0.078 0.418 0 0.152-0.031 0.273-0.092 0.364-0.059 0.088-0.142 0.156-0.239 0.196l-0.004 0.001c-0.1 0.041-0.207 0.066-0.317 0.077s-0.243 0.015-0.395 0.015h-0.029c-0.193 0-0.351-0.008-0.474-0.025s-0.221-0.057-0.297-0.122c-0.058-0.061-0.104-0.134-0.133-0.215l-0.001-0.004c-0.030-0.085-0.046-0.2-0.046-0.346h0.532c0 0.163 0.038 0.267 0.114 0.31 0.044 0.022 0.135 0.039 0.271 0.051 0.028-0.006 0.063-0.009 0.104-0.009h0.042c0.040 0 0.066 0.003 0.080 0.009 0.122-0.006 0.212-0.027 0.271-0.064s0.088-0.113 0.088-0.23c0-0.122-0.041-0.202-0.121-0.24s-0.195-0.060-0.343-0.066c-0.261-0.005-0.456-0.016-0.583-0.031s-0.228-0.054-0.301-0.116c-0.103-0.090-0.155-0.25-0.155-0.482v-0.066c0-0.152 0.027-0.27 0.083-0.355s0.139-0.147 0.253-0.186c0.131-0.041 0.351-0.062 0.661-0.062 0.175 0 0.316 0.006 0.424 0.019s0.201 0.044 0.28 0.095c0.165 0.103 0.247 0.274 0.247 0.514zM12.71 19.069v-3.14h2.156v0.515h-1.553v0.787h1.474v0.49h-1.474v0.832h1.562v0.516l-2.164 0zM16.778 18.735h-0.016c-0.095 0.24-0.329 0.36-0.703 0.36-0.488 0-0.733-0.205-0.733-0.616v-1.607h0.532v1.436c0 0.078 0.004 0.142 0.013 0.19 0.007 0.048 0.028 0.087 0.059 0.116s0.067 0.049 0.103 0.060c0.037 0.012 0.102 0.018 0.198 0.018 0.107 0 0.194-0.010 0.259-0.030s0.125-0.061 0.176-0.124c0.064-0.083 0.096-0.212 0.096-0.386v-1.281h0.523v2.197h-0.507v-0.334h0zM18.279 17.164h0.024c0.093-0.212 0.285-0.318 0.577-0.318 0.137 0 0.244 0.020 0.319 0.060s0.137 0.098 0.183 0.174c0.053 0.107 0.080 0.255 0.080 0.444v0.188h-0.49c0-0.132-0.005-0.229-0.015-0.291s-0.034-0.105-0.071-0.133c-0.038-0.027-0.099-0.042-0.185-0.046-0.133 0-0.232 0.038-0.298 0.113s-0.099 0.197-0.099 0.364v1.348h-0.523v-2.197h0.515l-0.016 0.292zM20.782 16.846c0.129 0 0.243 0.005 0.342 0.016s0.19 0.032 0.271 0.061c0.081 0.030 0.151 0.073 0.211 0.128 0.093 0.091 0.15 0.204 0.172 0.34s0.035 0.333 0.041 0.589c0 0.23-0.013 0.423-0.041 0.578-0.027 0.155-0.093 0.276-0.199 0.364-0.092 0.071-0.204 0.118-0.337 0.139s-0.289 0.032-0.47 0.032c-0.007 0-0.015 0-0.023 0-0.119 0-0.238-0.006-0.354-0.018l0.015 0.001c-0.109-0.011-0.209-0.039-0.301-0.081l0.006 0.002c-0.090-0.038-0.164-0.099-0.217-0.176l-0.001-0.002c-0.104-0.149-0.155-0.41-0.155-0.783 0-0.228 0.010-0.418 0.031-0.573 0.020-0.154 0.067-0.278 0.14-0.369 0.134-0.168 0.423-0.251 0.867-0.251zM20.782 17.243c-0.11 0.007-0.195 0.016-0.256 0.028-0.062 0.013-0.115 0.044-0.154 0.088l-0 0c-0.043 0.047-0.070 0.12-0.081 0.22-0.010 0.109-0.016 0.236-0.016 0.364 0 0.013 0 0.026 0 0.039v-0.002c0 0.149 0.004 0.268 0.014 0.359s0.030 0.162 0.062 0.215c0.035 0.060 0.089 0.098 0.162 0.114s0.163 0.024 0.27 0.024c0.004 0 0.010 0 0.015 0 0.084 0 0.166-0.007 0.247-0.021l-0.009 0.001c0.071-0.014 0.126-0.044 0.166-0.092 0.038-0.057 0.061-0.127 0.072-0.209s0.016-0.212 0.016-0.391c0-0.154-0.005-0.282-0.015-0.384s-0.033-0.178-0.073-0.228c-0.038-0.049-0.092-0.083-0.153-0.095l-0.002-0c-0.064-0.013-0.152-0.023-0.264-0.030zM23.302 18.693c0.203 0 0.333-0.046 0.389-0.138 0.056-0.103 0.084-0.296 0.084-0.582 0-0.144-0.007-0.269-0.021-0.375s-0.046-0.182-0.096-0.229c-0.044-0.048-0.092-0.080-0.147-0.095s-0.124-0.025-0.209-0.031c-0.219 0-0.364 0.053-0.435 0.159-0.054 0.074-0.086 0.232-0.096 0.474 0.005 0.034 0.008 0.085 0.008 0.155 0 0.128 0.005 0.233 0.016 0.314 0.010 0.080 0.034 0.147 0.073 0.201 0.046 0.061 0.106 0.1 0.18 0.119s0.158 0.028 0.256 0.028zM22.778 18.785v1.243h-0.531v-3.156h0.531l-0.026 0.334h0.017c0.058-0.131 0.144-0.223 0.256-0.278s0.256-0.082 0.43-0.082c0.271 0 0.472 0.060 0.604 0.18 0.101 0.090 0.172 0.212 0.197 0.35l0.001 0.004c0.027 0.14 0.043 0.325 0.049 0.555 0 0.236-0.011 0.43-0.033 0.58-0.021 0.15-0.077 0.272-0.164 0.367-0.069 0.077-0.154 0.133-0.257 0.165s-0.237 0.049-0.404 0.049c-0.159 0-0.294-0.022-0.403-0.064s-0.193-0.125-0.246-0.246h-0.021v0zM26.71 18.073h-1.512c0 0.047-0.002 0.088-0.008 0.122 0.006 0.115 0.017 0.21 0.035 0.282s0.052 0.123 0.102 0.154c0.057 0.027 0.108 0.044 0.155 0.052s0.125 0.010 0.231 0.010c0.121 0 0.206-0.004 0.255-0.013 0.050-0.007 0.093-0.027 0.131-0.058 0.053-0.043 0.080-0.125 0.080-0.248h0.531c0 0.268-0.068 0.459-0.205 0.573-0.078 0.062-0.179 0.101-0.303 0.12s-0.288 0.028-0.488 0.028c-0.005 0-0.011 0-0.017 0-0.117 0-0.232-0.006-0.346-0.017l0.014 0.001c-0.106-0.011-0.203-0.035-0.294-0.070l0.008 0.003c-0.086-0.032-0.158-0.082-0.215-0.147l-0-0.001c-0.083-0.099-0.137-0.226-0.161-0.381s-0.035-0.337-0.035-0.544c0-0.435 0.074-0.727 0.222-0.875 0.149-0.145 0.412-0.218 0.791-0.218 0.402 0.015 0.662 0.074 0.779 0.18 0.075 0.065 0.13 0.153 0.166 0.265 0.032 0.095 0.055 0.206 0.065 0.32l0 0.006c0.008 0.105 0.015 0.257 0.020 0.456zM26.178 17.737c0-0.216-0.024-0.35-0.071-0.401-0.023-0.022-0.050-0.039-0.080-0.050l-0.002-0c-0.033-0.012-0.071-0.021-0.11-0.026l-0.002-0c-0.033-0.005-0.074-0.008-0.115-0.010l-0.002-0c-0.038-0.002-0.077-0.003-0.116-0.005-0.112 0.006-0.199 0.014-0.263 0.026s-0.112 0.037-0.143 0.073c-0.033 0.035-0.053 0.083-0.062 0.145s-0.014 0.145-0.014 0.248l0.98 0z"></path>
</symbol>
<symbol id="icon-atomic-1" viewBox="0 0 32 32">
<title>atomic-1</title>
<path fill="#fff" style="fill: var(--color2, #fff)" d="M0 0h32v32h-32v-32z"></path>
<path fill="#b4282e" style="fill: var(--color9, #b4282e)" d="M3.789 12.773l-0.85 3.917-1.528 2.527 2.378-1.194 2.332 1.206-1.52-2.527-0.812-3.928zM12.158 18.022l-0.356-2.63h-1.367l-2.894 2.63h1.447l0.361-0.379h1.408v0.379h1.401zM10.704 17.045h-0.712l0.712-0.689v0.689zM22.714 15.391l-1.317 1.332 0.111-1.332h-1.918l-0.186 0.377c0.014 0.017 0.027 0.035 0.039 0.052 0.176 0.259 0.194 0.571 0.053 0.928-0.212 0.538-0.635 0.904-1.137 1.136l-0.067 0.137h1.309l0.82-1.734v1.734h0.949l1.567-1.642-0.82 1.642h1.298l1.275-2.63-1.975 0z"></path>
<path fill="#b4282e" style="fill: var(--color9, #b4282e)" d="M17.561 15.299c-0.644 0-1.223 0.152-1.677 0.391l0.1-0.299h-3.423l-0.386 0.838h1.068l-0.866 1.792h1.401l0.866-1.78h0.537c-0.184 0.222-0.293 0.466-0.307 0.712-0.046 0.839 0.781 1.137 1.849 1.137s2.263-0.402 2.653-1.39c0.39-0.988-0.643-1.401-1.815-1.401zM17.94 16.77c-0.276 0.517-0.597 0.62-1.091 0.62s-0.586-0.184-0.586-0.482 0.379-0.896 1.126-0.896c0.643-0 0.827 0.241 0.551 0.758zM25.183 15.391l-1.264 2.63h1.39l1.252-2.63h-1.378zM28.979 16.977c-0.221 0.345-0.417 0.413-0.841 0.413-0.494 0-0.586-0.184-0.586-0.482s0.379-0.896 1.125-0.896c0.446 0 0.605 0.121 0.569 0.368h1.338c0.063-0.735-0.719-1.080-1.734-1.080-1.493 0-2.642 0.816-2.688 1.654s0.781 1.137 1.849 1.137c0.98 0 1.923-0.301 2.372-1.114l-1.406-0z"></path>
</symbol>
<symbol id="icon-watchguard-technologies" viewBox="0 0 32 32">
<title>watchguard-technologies</title>
<path fill="#fff" style="fill: var(--color2, #fff)" d="M0 0h32v32h-32v-32z"></path>
<path fill="#969696" style="fill: var(--color10, #969696)" d="M0.47 12.97h0.881l0.442 2.567h0.010l0.618-2.567h0.851l0.613 2.631h0.012l0.472-2.631h0.847l-0.908 3.893h-0.783l-0.698-2.738h-0.010l-0.699 2.738h-0.756l-0.894-3.893z"></path>
<path fill="#cc2229" style="fill: var(--color11, #cc2229)" d="M14.619 11.054c0.771-0.608 1.779-0.976 2.884-0.976 1.103 0 2.112 0.368 2.883 0.976l0.183-0.191c-0.77-0.881-1.86-1.429-3.066-1.429s-2.295 0.549-3.069 1.429l0.185 0.191zM20.313 17.674c-0.755 0.595-1.742 0.958-2.826 0.958-1.080 0-2.068-0.363-2.823-0.958l-0.181 0.186c0.757 0.864 1.822 1.402 3.005 1.402 1.184 0 2.252-0.538 3.007-1.402l-0.181-0.186z"></path>
<path fill="#969696" style="fill: var(--color10, #969696)" d="M9.561 14.998h-0.634v0.768c0 0.278 0.032 0.483 0.38 0.483 0.086 0 0.221 0.008 0.291-0.062v0.657c-0.141 0.064-0.338 0.080-0.527 0.080-0.535 0-0.948-0.22-0.948-0.789v-1.138h-0.515v-0.641h0.515v-0.77h0.804v0.77h0.634v0.641zM12.851 12.961v1.72h0.011c0.073-0.204 0.335-0.419 0.725-0.425 0.815 0 0.966 0.536 0.966 1.236v1.366h-0.804v-1.206c0-0.3-0.006-0.688-0.418-0.688-0.416 0-0.481 0.328-0.481 0.667v1.227h-0.804v-3.898h0.804zM22.483 16.859h-0.77v-0.352h-0.012c-0.108 0.204-0.369 0.417-0.76 0.419-0.814 0-0.963-0.536-0.963-1.235v-1.332h0.802v1.171c0 0.301 0.006 0.688 0.419 0.688 0.417 0 0.48-0.329 0.48-0.668v-1.19h0.803v2.5zM25.692 14.36h0.805v0.418h0.011c0.17-0.316 0.395-0.481 0.748-0.486 0.091 0 0.192 0.005 0.266 0.028v0.735c-0.111-0.033-0.223-0.054-0.34-0.054-0.611 0-0.686 0.353-0.686 0.876v0.981h-0.805v-2.498zM29.758 15.59c0 0.363-0.274 0.627-0.642 0.627-0.382 0-0.604-0.234-0.604-0.626 0-0.361 0.222-0.626 0.604-0.626 0.375 0 0.642 0.259 0.642 0.626zM30.496 12.961h-0.803v1.639h-0.009c-0.183-0.252-0.456-0.344-0.787-0.344-0.739 0-1.189 0.628-1.189 1.357 0 0.789 0.508 1.311 1.28 1.311 0.364 0 0.637-0.22 0.76-0.409h0.009v0.342h0.739v-3.898zM17.561 14.353l0.537-0.626c-0.141-0.124-0.324-0.202-0.527-0.202-0.445 0-0.805 0.362-0.805 0.807s0.36 0.804 0.805 0.804l0.009-0.001h1.164v0.677c-0.293 0.242-0.764 0.42-1.194 0.42-1.048 0-1.902-0.854-1.902-1.902 0-1.051 0.853-1.902 1.902-1.902 0.482 0 0.92 0.178 1.254 0.473l0.517-0.602c-0.475-0.411-1.090-0.663-1.77-0.663-1.486 0-2.694 1.205-2.694 2.694 0 1.486 1.207 2.694 2.694 2.694 0.791 0 1.487-0.334 1.979-0.877 0 0 0.014-0.018 0.014-0.045v-1.749h-1.982zM6.631 15.753v0.192c0 0.252-0.223 0.419-0.539 0.419-0.177 0-0.346-0.093-0.346-0.287 0-0.356 0.439-0.323 0.686-0.323h0.199zM6.631 16.86h0.737v-1.296c0-0.872-0.183-1.207-1.167-1.207h-0.89l0.003 0.582c0.167 0 0.56 0.001 0.824 0.001 0.278 0 0.494-0.027 0.494 0.326-0.672 0-1.631-0.065-1.631 0.837 0 0.53 0.379 0.782 0.867 0.782 0.327 0 0.574-0.070 0.754-0.348h0.010v0.324zM24.487 15.753v0.192c0 0.252-0.225 0.419-0.54 0.419-0.176 0-0.347-0.093-0.347-0.287 0-0.356 0.441-0.323 0.688-0.323h0.199zM24.487 16.86h0.737v-1.296c0-0.872-0.183-1.207-1.167-1.207h-0.889v0.582c0.168 0 0.561 0.001 0.826 0.001 0.278 0 0.494-0.027 0.494 0.326-0.672 0-1.631-0.065-1.631 0.837 0 0.53 0.378 0.782 0.863 0.782 0.33 0 0.578-0.070 0.756-0.348h0.011v0.324h-0zM30.863 13.313c0-0.176 0.134-0.308 0.302-0.308 0.17 0 0.303 0.132 0.303 0.303 0 0.176-0.134 0.31-0.303 0.31-0 0-0.001 0-0.001 0-0.166 0-0.301-0.135-0.301-0.301 0-0.001 0-0.003 0-0.004v0zM31.030 13.521h0.057v-0.179h0.077l0.114 0.179h0.064l-0.122-0.183c0.064-0.007 0.11-0.039 0.11-0.113 0-0.083-0.046-0.12-0.148-0.12h-0.152v0.416h-0zM31.088 13.159h0.091c0.046 0 0.094 0.006 0.094 0.063 0 0.065-0.054 0.068-0.111 0.068h-0.074v-0.131zM30.804 13.313c0 0.203 0.164 0.356 0.361 0.356 0.198 0 0.364-0.154 0.364-0.361 0-0.2-0.166-0.355-0.364-0.355-0.001 0-0.002 0-0.003 0-0.198 0-0.359 0.161-0.359 0.359 0 0 0 0.001 0 0.001v-0zM11.568 14.35h-0.334c-0.801 0.002-1.397 0.464-1.397 1.234 0 0.782 0.598 1.272 1.403 1.272h0.328v-0.708h-0.334c-0.397-0.004-0.619-0.233-0.619-0.564 0-0.321 0.222-0.525 0.621-0.526h0.332v-0.708zM1.774 21.271h-0.395v-0.156h0.955v0.156h-0.393v1.068h-0.167v-1.068zM3.331 21.115h0.788v0.156h-0.624v0.364h0.581v0.156h-0.581v0.392h0.655v0.156h-0.819v-1.224zM6.013 21.38c-0.069-0.089-0.183-0.138-0.295-0.138-0.275 0-0.456 0.218-0.456 0.495 0 0.258 0.17 0.477 0.456 0.477 0.139 0 0.245-0.063 0.318-0.164l0.14 0.105c-0.036 0.050-0.183 0.215-0.462 0.215-0.388 0-0.629-0.324-0.629-0.632 0-0.378 0.261-0.65 0.638-0.65 0.161 0 0.328 0.061 0.427 0.19l-0.136 0.104zM7.198 21.115h0.166v0.509h0.633v-0.509h0.164v1.224h-0.164v-0.561h-0.633v0.561h-0.166v-1.224zM9.296 21.115h0.219l0.674 1.005h0.004v-1.005h0.166v1.224h-0.211l-0.682-1.006h-0.004v1.006h-0.166v-1.224zM12.009 22.213c-0.281 0-0.463-0.219-0.463-0.486s0.181-0.485 0.463-0.485c0.28 0 0.46 0.218 0.46 0.485s-0.18 0.486-0.46 0.486zM12.009 22.368c0.372 0 0.636-0.279 0.636-0.642s-0.263-0.641-0.636-0.641c-0.373 0-0.636 0.279-0.636 0.641s0.263 0.642 0.636 0.642zM13.66 21.115h0.167v1.068h0.56v0.156h-0.727v-1.224zM15.849 22.213c-0.28 0-0.459-0.219-0.459-0.486s0.179-0.485 0.459-0.485c0.281 0 0.462 0.218 0.462 0.485s-0.181 0.486-0.462 0.486zM15.849 22.368c0.374 0 0.637-0.279 0.637-0.642s-0.263-0.641-0.637-0.641c-0.372 0-0.635 0.279-0.635 0.641s0.263 0.642 0.635 0.642zM18.545 21.654v0.602c-0.121 0.073-0.315 0.112-0.465 0.112-0.414 0-0.653-0.296-0.653-0.642 0-0.362 0.264-0.64 0.638-0.64 0.225 0 0.36 0.061 0.455 0.158l-0.117 0.126c-0.1-0.098-0.216-0.128-0.338-0.128-0.282 0-0.462 0.218-0.462 0.485 0 0.276 0.206 0.487 0.475 0.487 0.117 0 0.228-0.021 0.302-0.065v-0.339h-0.272v-0.155l0.437-0zM19.64 21.115h0.164v1.224h-0.164v-1.224zM20.94 21.115h0.789v0.156h-0.625v0.364h0.581v0.156h-0.581v0.392h0.654v0.156h-0.819v-1.224zM22.85 22.082c0.057 0.089 0.162 0.131 0.261 0.131 0.109 0 0.245-0.069 0.245-0.202 0-0.282-0.604-0.107-0.604-0.584 0-0.142 0.121-0.341 0.416-0.341 0.13 0 0.26 0.027 0.351 0.14l-0.132 0.123c-0.044-0.064-0.124-0.107-0.218-0.107-0.185 0-0.241 0.108-0.241 0.186 0 0.308 0.604 0.124 0.604 0.564 0 0.237-0.19 0.377-0.424 0.377-0.16 0-0.31-0.053-0.392-0.168l0.135-0.118zM24.102 22.567h-0.143l0.121-0.424h0.166l-0.144 0.424zM26.115 21.115h0.167v1.224h-0.167v-1.224zM27.414 21.115h0.218l0.674 1.005h0.003v-1.005h0.166v1.224h-0.21l-0.683-1.006h-0.004v1.006h-0.166v-1.224zM30.383 21.38c-0.069-0.089-0.183-0.138-0.296-0.138-0.274 0-0.457 0.218-0.457 0.495 0 0.258 0.172 0.477 0.457 0.477 0.14 0 0.247-0.063 0.32-0.164l0.14 0.105c-0.036 0.050-0.183 0.215-0.464 0.215-0.39 0-0.627-0.324-0.627-0.632 0-0.378 0.261-0.65 0.637-0.65 0.16 0 0.329 0.061 0.429 0.19l-0.139 0.104zM30.803 22.232c0-0.063 0.051-0.114 0.114-0.114s0.114 0.051 0.114 0.114v0c0 0 0 0 0 0 0 0.063-0.051 0.114-0.114 0.115h-0c-0.063-0.001-0.113-0.052-0.114-0.115v-0z"></path>
</symbol>
</defs>
</svg>
